M48
; DRILL file {KiCad 8.0.6-8.0.6-0~ubuntu22.04.1} date 2024-11-27T22:39:06+0900
; FORMAT={-:-/ absolute / metric / decimal}
; #@! TF.CreationDate,2024-11-27T22:39:06+09:00
; #@! TF.GenerationSoftware,Kicad,Pcbnew,8.0.6-8.0.6-0~ubuntu22.04.1
; #@! TF.FileFunction,MixedPlating,1,2
FMAT,2
METRIC
; #@! TA.AperFunction,Plated,PTH,ViaDrill
T1C0.300
; #@! TA.AperFunction,Plated,PTH,ComponentDrill
T2C0.800
; #@! TA.AperFunction,Plated,PTH,ComponentDrill
T3C0.900
; #@! TA.AperFunction,Plated,PTH,ComponentDrill
T4C1.000
; #@! TA.AperFunction,Plated,PTH,ComponentDrill
T5C1.090
; #@! TA.AperFunction,NonPlated,NPTH,ComponentDrill
T6C3.200
%
G90
G05
T1
X9.92Y31.115
X10.795Y36.195
X13.956Y36.195
X14.49Y41.275
X15.875Y66.675
X17.78Y40.64
X20.292Y40.005
X22.062Y39.37
X22.225Y66.379
X23.052Y37.431
X24.244Y38.866
X27.305Y38.1
X29.21Y37.465
X38.1Y22.86
X42.053Y10.525
X45.72Y48.26
X55.245Y32.385
X58.737Y32.703
X59.69Y47.597
T2
X1.905Y15.24
X1.905Y7.62
X3.175Y46.355
X3.175Y38.735
X3.805Y85.1
X3.805Y77.48
X6.345Y85.1
X6.345Y77.48
X6.35Y55.205
X6.35Y50.205
X8.255Y43.18
X8.255Y27.94
X8.255Y20.32
X8.255Y16.525
X8.255Y8.905
X8.255Y5.08
X8.885Y85.1
X8.885Y77.48
X8.89Y74.93
X8.89Y67.31
X8.89Y65.18
X8.89Y57.56
X9.525Y50.165
X10.795Y43.18
X10.795Y27.94
X10.795Y20.32
X10.795Y16.525
X10.795Y8.905
X10.795Y5.08
X11.425Y85.1
X11.425Y77.48
X13.335Y74.295
X13.335Y64.135
X13.335Y43.18
X13.335Y27.94
X13.335Y20.32
X13.335Y16.525
X13.335Y8.905
X13.335Y5.08
X13.965Y85.1
X13.965Y77.48
X15.875Y64.135
X15.875Y43.18
X15.875Y27.94
X15.875Y20.32
X15.875Y16.525
X15.875Y8.905
X15.875Y5.08
X16.505Y85.1
X16.505Y77.48
X17.145Y50.165
X18.415Y64.135
X18.415Y43.18
X18.415Y27.94
X18.415Y20.32
X18.415Y16.525
X18.415Y8.905
X18.415Y5.08
X19.045Y85.1
X19.045Y77.48
X20.32Y50.165
X20.955Y74.295
X20.955Y64.135
X20.955Y43.18
X20.955Y27.94
X20.955Y20.32
X20.955Y16.525
X20.955Y8.905
X20.955Y5.08
X22.86Y50.165
X23.495Y64.135
X23.495Y43.18
X23.495Y27.94
X23.495Y20.32
X23.495Y16.525
X23.495Y8.905
X23.495Y5.08
X24.765Y85.09
X24.765Y77.47
X25.4Y50.165
X26.035Y64.135
X26.035Y43.18
X26.035Y27.94
X26.035Y20.32
X26.035Y16.525
X26.035Y8.905
X26.035Y5.08
X27.305Y85.09
X27.305Y77.47
X27.94Y50.165
X28.575Y64.135
X28.575Y43.18
X28.575Y27.94
X28.575Y20.32
X28.575Y16.525
X28.575Y8.905
X28.575Y5.08
X29.845Y85.09
X29.845Y77.47
X30.48Y50.165
X31.115Y64.135
X31.115Y43.18
X31.115Y27.94
X31.115Y20.32
X31.115Y16.525
X31.115Y8.905
X31.115Y5.08
X32.385Y85.09
X32.385Y77.47
X33.02Y50.165
X33.655Y64.135
X33.655Y43.18
X33.655Y27.94
X33.655Y20.32
X33.655Y16.525
X33.655Y8.905
X33.655Y5.08
X34.925Y92.075
X34.925Y89.3
X34.925Y85.09
X34.925Y77.47
X35.56Y50.165
X36.195Y43.18
X36.195Y27.94
X36.195Y20.32
X36.195Y16.525
X36.195Y8.905
X36.195Y5.08
X37.465Y85.09
X37.465Y77.47
X38.1Y50.165
X38.735Y43.18
X38.735Y27.94
X38.735Y20.32
X38.735Y16.525
X38.735Y8.905
X38.735Y5.08
X40.005Y85.09
X40.005Y77.47
X40.64Y50.165
X41.275Y43.18
X41.275Y27.94
X41.275Y20.32
X41.275Y16.525
X41.275Y8.905
X41.275Y5.08
X41.91Y64.135
X42.545Y92.075
X42.545Y89.3
X42.545Y85.09
X42.545Y77.47
X43.815Y43.18
X43.815Y27.94
X44.45Y64.135
X45.085Y85.09
X45.085Y77.47
X45.72Y92.075
X45.72Y89.3
X46.355Y43.18
X46.355Y27.94
X46.99Y64.135
X47.625Y85.09
X47.625Y77.47
X47.625Y50.165
X47.625Y20.955
X48.895Y43.18
X48.895Y27.94
X49.53Y64.135
X50.165Y50.165
X51.435Y43.18
X51.435Y27.94
X52.07Y64.135
X52.705Y50.165
X53.34Y92.075
X53.34Y89.3
X53.975Y43.18
X53.975Y27.94
X54.61Y64.135
X55.245Y50.165
X55.245Y20.955
X56.515Y92.075
X56.515Y88.9
X56.515Y43.18
X56.515Y27.94
X57.15Y64.135
X57.785Y50.165
X58.42Y21.55
X58.42Y16.55
X59.69Y64.135
X61.595Y48.26
X61.595Y45.72
X61.595Y43.18
X61.595Y40.64
X61.595Y38.1
X61.595Y35.56
X61.595Y33.02
X61.595Y28.575
X61.595Y24.13
X61.595Y21.59
X61.595Y19.05
X61.595Y16.51
X61.595Y13.97
X61.595Y11.43
X61.595Y8.89
X62.23Y64.135
X64.135Y92.075
X64.135Y88.9
X67.945Y72.39
X67.945Y64.77
X67.945Y61.595
X67.945Y53.975
X69.215Y48.26
X69.215Y45.72
X69.215Y43.18
X69.215Y40.64
X69.215Y38.1
X69.215Y35.56
X69.215Y33.02
X69.215Y28.575
X69.215Y24.13
X69.215Y21.59
X69.215Y19.05
X69.215Y16.51
X69.215Y13.97
X69.215Y11.43
X69.215Y8.89
T3
X1.9Y19.05
X3.175Y57.15
X3.175Y49.53
X4.44Y19.05
X12.065Y69.85
X14.605Y69.85
X19.045Y69.85
X21.585Y69.85
X26.03Y69.85
X28.57Y69.85
X33.015Y69.85
X35.555Y69.85
X40.0Y69.85
X42.54Y69.85
X46.355Y13.97
X46.355Y6.35
X46.985Y69.85
X49.525Y69.85
X53.97Y69.85
X56.51Y69.85
X60.955Y69.85
X63.495Y69.85
T4
X3.175Y29.845
X3.175Y27.305
X3.175Y24.765
X3.81Y70.485
X3.81Y67.945
X3.81Y65.405
X3.81Y62.865
X3.81Y60.325
X8.255Y46.355
X8.255Y24.765
X10.795Y46.355
X10.795Y24.765
X13.335Y59.055
X13.335Y56.515
X13.335Y53.975
X13.335Y46.355
X13.335Y24.765
X15.875Y46.355
X15.875Y24.765
X18.415Y46.355
X18.415Y24.765
X20.32Y59.015
X20.32Y56.475
X20.32Y53.935
X20.955Y46.355
X20.955Y24.765
X23.495Y46.355
X23.495Y24.765
X26.035Y46.355
X26.035Y24.765
X27.305Y59.055
X27.305Y56.515
X27.305Y53.975
X28.575Y46.355
X28.575Y24.765
X31.115Y46.355
X31.115Y24.765
X33.655Y46.355
X33.655Y24.765
X34.29Y59.055
X34.29Y56.515
X34.29Y53.975
X36.195Y46.355
X36.195Y24.765
X38.735Y46.355
X38.735Y24.765
X41.275Y59.055
X41.275Y56.515
X41.275Y53.975
X41.275Y46.355
X41.275Y24.765
X43.815Y46.355
X43.815Y24.765
X46.355Y46.355
X46.355Y24.765
X48.26Y59.015
X48.26Y56.475
X48.26Y53.935
X48.895Y46.355
X48.895Y24.765
X51.435Y46.355
X51.435Y24.765
X53.975Y46.355
X53.975Y24.765
X54.61Y83.185
X54.61Y80.645
X54.61Y78.105
X55.245Y59.055
X55.245Y56.515
X55.245Y53.975
X56.515Y46.355
X56.515Y24.765
X61.595Y83.185
X61.595Y80.645
X61.595Y78.105
X62.23Y59.055
X62.23Y56.515
X62.23Y53.975
X68.58Y83.185
X68.58Y80.645
X68.58Y78.105
T5
X14.05Y89.005
X19.05Y92.605
X24.05Y89.005
T6
X3.0Y92.0
X3.0Y3.0
X69.0Y92.0
X69.0Y3.0
T4
G00X52.017Y13.97
M15
G01X54.017Y13.97
M16
G05
G00X52.017Y7.97
M15
G01X54.017Y7.97
M16
G05
G00X57.717Y9.97
M15
G01X57.717Y11.97
M16
G05
M30
