G04 #@! TF.GenerationSoftware,KiCad,Pcbnew,8.0.6-8.0.6-0~ubuntu22.04.1*
G04 #@! TF.CreationDate,2024-11-27T22:38:52+09:00*
G04 #@! TF.ProjectId,cosmac_toy_v2,636f736d-6163-45f7-946f-795f76322e6b,0.1*
G04 #@! TF.SameCoordinates,PX1d11680PY907ef78*
G04 #@! TF.FileFunction,Legend,Top*
G04 #@! TF.FilePolarity,Positive*
%FSLAX46Y46*%
G04 Gerber Fmt 4.6, Leading zero omitted, Abs format (unit mm)*
G04 Created by KiCad (PCBNEW 8.0.6-8.0.6-0~ubuntu22.04.1) date 2024-11-27 22:38:52*
%MOMM*%
%LPD*%
G01*
G04 APERTURE LIST*
%ADD10C,0.150000*%
%ADD11C,0.250000*%
%ADD12C,0.300000*%
%ADD13C,0.200000*%
%ADD14C,0.400000*%
%ADD15C,0.120000*%
G04 APERTURE END LIST*
D10*
X54960000Y73025000D02*
X53460000Y73025000D01*
X60960000Y73025000D02*
X62460000Y73025000D01*
X53245000Y86360000D02*
X53245000Y85090000D01*
X55880000Y86360000D02*
X53245000Y86360000D01*
X62460000Y73025000D02*
X62460000Y74025000D01*
X62865000Y86360000D02*
X62865000Y85090000D01*
X60595000Y86360000D02*
X62865000Y86360000D01*
X53460000Y73025000D02*
X53460000Y74025000D01*
D11*
X2405901Y31909858D02*
X2005901Y32481286D01*
X1720187Y31909858D02*
X1720187Y33109858D01*
X1720187Y33109858D02*
X2177330Y33109858D01*
X2177330Y33109858D02*
X2291615Y33052715D01*
X2291615Y33052715D02*
X2348758Y32995572D01*
X2348758Y32995572D02*
X2405901Y32881286D01*
X2405901Y32881286D02*
X2405901Y32709858D01*
X2405901Y32709858D02*
X2348758Y32595572D01*
X2348758Y32595572D02*
X2291615Y32538429D01*
X2291615Y32538429D02*
X2177330Y32481286D01*
X2177330Y32481286D02*
X1720187Y32481286D01*
X2920187Y33109858D02*
X2920187Y32138429D01*
X2920187Y32138429D02*
X2977330Y32024143D01*
X2977330Y32024143D02*
X3034473Y31967000D01*
X3034473Y31967000D02*
X3148758Y31909858D01*
X3148758Y31909858D02*
X3377330Y31909858D01*
X3377330Y31909858D02*
X3491615Y31967000D01*
X3491615Y31967000D02*
X3548758Y32024143D01*
X3548758Y32024143D02*
X3605901Y32138429D01*
X3605901Y32138429D02*
X3605901Y33109858D01*
X4177330Y31909858D02*
X4177330Y33109858D01*
X4177330Y33109858D02*
X4863044Y31909858D01*
X4863044Y31909858D02*
X4863044Y33109858D01*
D12*
X56442368Y72576934D02*
X55775701Y72576934D01*
X55775701Y72576934D02*
X55775701Y73976934D01*
X57175701Y73976934D02*
X57442367Y73976934D01*
X57442367Y73976934D02*
X57575701Y73910267D01*
X57575701Y73910267D02*
X57709034Y73776934D01*
X57709034Y73776934D02*
X57775701Y73510267D01*
X57775701Y73510267D02*
X57775701Y73043600D01*
X57775701Y73043600D02*
X57709034Y72776934D01*
X57709034Y72776934D02*
X57575701Y72643600D01*
X57575701Y72643600D02*
X57442367Y72576934D01*
X57442367Y72576934D02*
X57175701Y72576934D01*
X57175701Y72576934D02*
X57042367Y72643600D01*
X57042367Y72643600D02*
X56909034Y72776934D01*
X56909034Y72776934D02*
X56842367Y73043600D01*
X56842367Y73043600D02*
X56842367Y73510267D01*
X56842367Y73510267D02*
X56909034Y73776934D01*
X56909034Y73776934D02*
X57042367Y73910267D01*
X57042367Y73910267D02*
X57175701Y73976934D01*
X58309034Y72976934D02*
X58975701Y72976934D01*
X58175701Y72576934D02*
X58642368Y73976934D01*
X58642368Y73976934D02*
X59109034Y72576934D01*
X59575701Y72576934D02*
X59575701Y73976934D01*
X59575701Y73976934D02*
X59909034Y73976934D01*
X59909034Y73976934D02*
X60109034Y73910267D01*
X60109034Y73910267D02*
X60242368Y73776934D01*
X60242368Y73776934D02*
X60309034Y73643600D01*
X60309034Y73643600D02*
X60375701Y73376934D01*
X60375701Y73376934D02*
X60375701Y73176934D01*
X60375701Y73176934D02*
X60309034Y72910267D01*
X60309034Y72910267D02*
X60242368Y72776934D01*
X60242368Y72776934D02*
X60109034Y72643600D01*
X60109034Y72643600D02*
X59909034Y72576934D01*
X59909034Y72576934D02*
X59575701Y72576934D01*
D10*
X10290350Y81441848D02*
X10290350Y80775181D01*
X10052255Y81822800D02*
X9814160Y81108515D01*
X9814160Y81108515D02*
X10433207Y81108515D01*
X11004636Y81775181D02*
X11099874Y81775181D01*
X11099874Y81775181D02*
X11195112Y81727562D01*
X11195112Y81727562D02*
X11242731Y81679943D01*
X11242731Y81679943D02*
X11290350Y81584705D01*
X11290350Y81584705D02*
X11337969Y81394229D01*
X11337969Y81394229D02*
X11337969Y81156134D01*
X11337969Y81156134D02*
X11290350Y80965658D01*
X11290350Y80965658D02*
X11242731Y80870420D01*
X11242731Y80870420D02*
X11195112Y80822800D01*
X11195112Y80822800D02*
X11099874Y80775181D01*
X11099874Y80775181D02*
X11004636Y80775181D01*
X11004636Y80775181D02*
X10909398Y80822800D01*
X10909398Y80822800D02*
X10861779Y80870420D01*
X10861779Y80870420D02*
X10814160Y80965658D01*
X10814160Y80965658D02*
X10766541Y81156134D01*
X10766541Y81156134D02*
X10766541Y81394229D01*
X10766541Y81394229D02*
X10814160Y81584705D01*
X10814160Y81584705D02*
X10861779Y81679943D01*
X10861779Y81679943D02*
X10909398Y81727562D01*
X10909398Y81727562D02*
X11004636Y81775181D01*
X12290350Y80775181D02*
X11718922Y80775181D01*
X12004636Y80775181D02*
X12004636Y81775181D01*
X12004636Y81775181D02*
X11909398Y81632324D01*
X11909398Y81632324D02*
X11814160Y81537086D01*
X11814160Y81537086D02*
X11718922Y81489467D01*
X13242731Y80775181D02*
X12671303Y80775181D01*
X12957017Y80775181D02*
X12957017Y81775181D01*
X12957017Y81775181D02*
X12861779Y81632324D01*
X12861779Y81632324D02*
X12766541Y81537086D01*
X12766541Y81537086D02*
X12671303Y81489467D01*
D12*
X68005701Y74481934D02*
X67539034Y75148600D01*
X67205701Y74481934D02*
X67205701Y75881934D01*
X67205701Y75881934D02*
X67739034Y75881934D01*
X67739034Y75881934D02*
X67872368Y75815267D01*
X67872368Y75815267D02*
X67939034Y75748600D01*
X67939034Y75748600D02*
X68005701Y75615267D01*
X68005701Y75615267D02*
X68005701Y75415267D01*
X68005701Y75415267D02*
X67939034Y75281934D01*
X67939034Y75281934D02*
X67872368Y75215267D01*
X67872368Y75215267D02*
X67739034Y75148600D01*
X67739034Y75148600D02*
X67205701Y75148600D01*
X68872368Y75881934D02*
X69139034Y75881934D01*
X69139034Y75881934D02*
X69272368Y75815267D01*
X69272368Y75815267D02*
X69405701Y75681934D01*
X69405701Y75681934D02*
X69472368Y75415267D01*
X69472368Y75415267D02*
X69472368Y74948600D01*
X69472368Y74948600D02*
X69405701Y74681934D01*
X69405701Y74681934D02*
X69272368Y74548600D01*
X69272368Y74548600D02*
X69139034Y74481934D01*
X69139034Y74481934D02*
X68872368Y74481934D01*
X68872368Y74481934D02*
X68739034Y74548600D01*
X68739034Y74548600D02*
X68605701Y74681934D01*
X68605701Y74681934D02*
X68539034Y74948600D01*
X68539034Y74948600D02*
X68539034Y75415267D01*
X68539034Y75415267D02*
X68605701Y75681934D01*
X68605701Y75681934D02*
X68739034Y75815267D01*
X68739034Y75815267D02*
X68872368Y75881934D01*
D10*
X38436779Y69345181D02*
X38436779Y70345181D01*
X39008207Y69345181D02*
X38579636Y69916610D01*
X39008207Y70345181D02*
X38436779Y69773753D01*
D13*
X58630863Y2402781D02*
X58154673Y2402781D01*
X58154673Y2402781D02*
X58107054Y1926591D01*
X58107054Y1926591D02*
X58154673Y1974210D01*
X58154673Y1974210D02*
X58249911Y2021829D01*
X58249911Y2021829D02*
X58488006Y2021829D01*
X58488006Y2021829D02*
X58583244Y1974210D01*
X58583244Y1974210D02*
X58630863Y1926591D01*
X58630863Y1926591D02*
X58678482Y1831353D01*
X58678482Y1831353D02*
X58678482Y1593258D01*
X58678482Y1593258D02*
X58630863Y1498020D01*
X58630863Y1498020D02*
X58583244Y1450400D01*
X58583244Y1450400D02*
X58488006Y1402781D01*
X58488006Y1402781D02*
X58249911Y1402781D01*
X58249911Y1402781D02*
X58154673Y1450400D01*
X58154673Y1450400D02*
X58107054Y1498020D01*
X58964197Y2402781D02*
X59297530Y1402781D01*
X59297530Y1402781D02*
X59630863Y2402781D01*
D11*
X885187Y71914858D02*
X885187Y73114858D01*
X885187Y73114858D02*
X1170901Y73114858D01*
X1170901Y73114858D02*
X1342330Y73057715D01*
X1342330Y73057715D02*
X1456615Y72943429D01*
X1456615Y72943429D02*
X1513758Y72829143D01*
X1513758Y72829143D02*
X1570901Y72600572D01*
X1570901Y72600572D02*
X1570901Y72429143D01*
X1570901Y72429143D02*
X1513758Y72200572D01*
X1513758Y72200572D02*
X1456615Y72086286D01*
X1456615Y72086286D02*
X1342330Y71972000D01*
X1342330Y71972000D02*
X1170901Y71914858D01*
X1170901Y71914858D02*
X885187Y71914858D01*
X2085187Y71914858D02*
X2085187Y73114858D01*
X2085187Y73114858D02*
X2485187Y72257715D01*
X2485187Y72257715D02*
X2885187Y73114858D01*
X2885187Y73114858D02*
X2885187Y71914858D01*
X3399473Y72257715D02*
X3970902Y72257715D01*
X3285187Y71914858D02*
X3685187Y73114858D01*
X3685187Y73114858D02*
X4085187Y71914858D01*
X4485187Y71914858D02*
X4485187Y73114858D01*
X5056616Y71914858D02*
X5056616Y73114858D01*
X5056616Y73114858D02*
X5742330Y71914858D01*
X5742330Y71914858D02*
X5742330Y73114858D01*
D10*
X24466779Y69345181D02*
X24466779Y70345181D01*
X25038207Y69345181D02*
X24609636Y69916610D01*
X25038207Y70345181D02*
X24466779Y69773753D01*
D12*
X59750701Y74615267D02*
X59684034Y74548600D01*
X59684034Y74548600D02*
X59484034Y74481934D01*
X59484034Y74481934D02*
X59350701Y74481934D01*
X59350701Y74481934D02*
X59150701Y74548600D01*
X59150701Y74548600D02*
X59017368Y74681934D01*
X59017368Y74681934D02*
X58950701Y74815267D01*
X58950701Y74815267D02*
X58884034Y75081934D01*
X58884034Y75081934D02*
X58884034Y75281934D01*
X58884034Y75281934D02*
X58950701Y75548600D01*
X58950701Y75548600D02*
X59017368Y75681934D01*
X59017368Y75681934D02*
X59150701Y75815267D01*
X59150701Y75815267D02*
X59350701Y75881934D01*
X59350701Y75881934D02*
X59484034Y75881934D01*
X59484034Y75881934D02*
X59684034Y75815267D01*
X59684034Y75815267D02*
X59750701Y75748600D01*
X61017368Y74481934D02*
X60350701Y74481934D01*
X60350701Y74481934D02*
X60350701Y75881934D01*
X61484034Y75215267D02*
X61950701Y75215267D01*
X62150701Y74481934D02*
X61484034Y74481934D01*
X61484034Y74481934D02*
X61484034Y75881934D01*
X61484034Y75881934D02*
X62150701Y75881934D01*
X62684034Y74881934D02*
X63350701Y74881934D01*
X62550701Y74481934D02*
X63017368Y75881934D01*
X63017368Y75881934D02*
X63484034Y74481934D01*
X64750701Y74481934D02*
X64284034Y75148600D01*
X63950701Y74481934D02*
X63950701Y75881934D01*
X63950701Y75881934D02*
X64484034Y75881934D01*
X64484034Y75881934D02*
X64617368Y75815267D01*
X64617368Y75815267D02*
X64684034Y75748600D01*
X64684034Y75748600D02*
X64750701Y75615267D01*
X64750701Y75615267D02*
X64750701Y75415267D01*
X64750701Y75415267D02*
X64684034Y75281934D01*
X64684034Y75281934D02*
X64617368Y75215267D01*
X64617368Y75215267D02*
X64484034Y75148600D01*
X64484034Y75148600D02*
X63950701Y75148600D01*
D10*
X31771541Y90830181D02*
X32390588Y90830181D01*
X32390588Y90830181D02*
X32057255Y90449229D01*
X32057255Y90449229D02*
X32200112Y90449229D01*
X32200112Y90449229D02*
X32295350Y90401610D01*
X32295350Y90401610D02*
X32342969Y90353991D01*
X32342969Y90353991D02*
X32390588Y90258753D01*
X32390588Y90258753D02*
X32390588Y90020658D01*
X32390588Y90020658D02*
X32342969Y89925420D01*
X32342969Y89925420D02*
X32295350Y89877800D01*
X32295350Y89877800D02*
X32200112Y89830181D01*
X32200112Y89830181D02*
X31914398Y89830181D01*
X31914398Y89830181D02*
X31819160Y89877800D01*
X31819160Y89877800D02*
X31771541Y89925420D01*
X32676303Y90830181D02*
X33009636Y89830181D01*
X33009636Y89830181D02*
X33342969Y90830181D01*
X59391779Y69345181D02*
X59391779Y70345181D01*
X59963207Y69345181D02*
X59534636Y69916610D01*
X59963207Y70345181D02*
X59391779Y69773753D01*
D12*
X52467368Y75881934D02*
X52800701Y74481934D01*
X52800701Y74481934D02*
X53067368Y75481934D01*
X53067368Y75481934D02*
X53334034Y74481934D01*
X53334034Y74481934D02*
X53667368Y75881934D01*
X54134034Y74881934D02*
X54800701Y74881934D01*
X54000701Y74481934D02*
X54467368Y75881934D01*
X54467368Y75881934D02*
X54934034Y74481934D01*
X55400701Y74481934D02*
X55400701Y75881934D01*
X55867368Y75881934D02*
X56667368Y75881934D01*
X56267368Y74481934D02*
X56267368Y75881934D01*
D10*
X771779Y16640181D02*
X771779Y17640181D01*
X1343207Y16640181D02*
X914636Y17211610D01*
X1343207Y17640181D02*
X771779Y17068753D01*
D11*
X1663044Y21807000D02*
X1834473Y21749858D01*
X1834473Y21749858D02*
X2120187Y21749858D01*
X2120187Y21749858D02*
X2234473Y21807000D01*
X2234473Y21807000D02*
X2291615Y21864143D01*
X2291615Y21864143D02*
X2348758Y21978429D01*
X2348758Y21978429D02*
X2348758Y22092715D01*
X2348758Y22092715D02*
X2291615Y22207000D01*
X2291615Y22207000D02*
X2234473Y22264143D01*
X2234473Y22264143D02*
X2120187Y22321286D01*
X2120187Y22321286D02*
X1891615Y22378429D01*
X1891615Y22378429D02*
X1777330Y22435572D01*
X1777330Y22435572D02*
X1720187Y22492715D01*
X1720187Y22492715D02*
X1663044Y22607000D01*
X1663044Y22607000D02*
X1663044Y22721286D01*
X1663044Y22721286D02*
X1720187Y22835572D01*
X1720187Y22835572D02*
X1777330Y22892715D01*
X1777330Y22892715D02*
X1891615Y22949858D01*
X1891615Y22949858D02*
X2177330Y22949858D01*
X2177330Y22949858D02*
X2348758Y22892715D01*
X2691615Y22949858D02*
X3377330Y22949858D01*
X3034472Y21749858D02*
X3034472Y22949858D01*
X4177330Y22378429D02*
X4348758Y22321286D01*
X4348758Y22321286D02*
X4405901Y22264143D01*
X4405901Y22264143D02*
X4463044Y22149858D01*
X4463044Y22149858D02*
X4463044Y21978429D01*
X4463044Y21978429D02*
X4405901Y21864143D01*
X4405901Y21864143D02*
X4348758Y21807000D01*
X4348758Y21807000D02*
X4234473Y21749858D01*
X4234473Y21749858D02*
X3777330Y21749858D01*
X3777330Y21749858D02*
X3777330Y22949858D01*
X3777330Y22949858D02*
X4177330Y22949858D01*
X4177330Y22949858D02*
X4291616Y22892715D01*
X4291616Y22892715D02*
X4348758Y22835572D01*
X4348758Y22835572D02*
X4405901Y22721286D01*
X4405901Y22721286D02*
X4405901Y22607000D01*
X4405901Y22607000D02*
X4348758Y22492715D01*
X4348758Y22492715D02*
X4291616Y22435572D01*
X4291616Y22435572D02*
X4177330Y22378429D01*
X4177330Y22378429D02*
X3777330Y22378429D01*
X5205901Y22321286D02*
X5205901Y21749858D01*
X4805901Y22949858D02*
X5205901Y22321286D01*
X5205901Y22321286D02*
X5605901Y22949858D01*
D10*
X45421779Y69345181D02*
X45421779Y70345181D01*
X45993207Y69345181D02*
X45564636Y69916610D01*
X45993207Y70345181D02*
X45421779Y69773753D01*
D12*
X4729510Y15096315D02*
X4586653Y15167743D01*
X4586653Y15167743D02*
X4443796Y15310600D01*
X4443796Y15310600D02*
X4229510Y15524886D01*
X4229510Y15524886D02*
X4086653Y15596315D01*
X4086653Y15596315D02*
X3943796Y15596315D01*
X4015225Y15239172D02*
X3872368Y15310600D01*
X3872368Y15310600D02*
X3729510Y15453458D01*
X3729510Y15453458D02*
X3658082Y15739172D01*
X3658082Y15739172D02*
X3658082Y16239172D01*
X3658082Y16239172D02*
X3729510Y16524886D01*
X3729510Y16524886D02*
X3872368Y16667743D01*
X3872368Y16667743D02*
X4015225Y16739172D01*
X4015225Y16739172D02*
X4300939Y16739172D01*
X4300939Y16739172D02*
X4443796Y16667743D01*
X4443796Y16667743D02*
X4586653Y16524886D01*
X4586653Y16524886D02*
X4658082Y16239172D01*
X4658082Y16239172D02*
X4658082Y15739172D01*
X4658082Y15739172D02*
X4586653Y15453458D01*
X4586653Y15453458D02*
X4443796Y15310600D01*
X4443796Y15310600D02*
X4300939Y15239172D01*
X4300939Y15239172D02*
X4015225Y15239172D01*
D10*
X23625350Y13195181D02*
X23434874Y13195181D01*
X23434874Y13195181D02*
X23339636Y13147562D01*
X23339636Y13147562D02*
X23292017Y13099943D01*
X23292017Y13099943D02*
X23196779Y12957086D01*
X23196779Y12957086D02*
X23149160Y12766610D01*
X23149160Y12766610D02*
X23149160Y12385658D01*
X23149160Y12385658D02*
X23196779Y12290420D01*
X23196779Y12290420D02*
X23244398Y12242800D01*
X23244398Y12242800D02*
X23339636Y12195181D01*
X23339636Y12195181D02*
X23530112Y12195181D01*
X23530112Y12195181D02*
X23625350Y12242800D01*
X23625350Y12242800D02*
X23672969Y12290420D01*
X23672969Y12290420D02*
X23720588Y12385658D01*
X23720588Y12385658D02*
X23720588Y12623753D01*
X23720588Y12623753D02*
X23672969Y12718991D01*
X23672969Y12718991D02*
X23625350Y12766610D01*
X23625350Y12766610D02*
X23530112Y12814229D01*
X23530112Y12814229D02*
X23339636Y12814229D01*
X23339636Y12814229D02*
X23244398Y12766610D01*
X23244398Y12766610D02*
X23196779Y12718991D01*
X23196779Y12718991D02*
X23149160Y12623753D01*
X24101541Y13099943D02*
X24149160Y13147562D01*
X24149160Y13147562D02*
X24244398Y13195181D01*
X24244398Y13195181D02*
X24482493Y13195181D01*
X24482493Y13195181D02*
X24577731Y13147562D01*
X24577731Y13147562D02*
X24625350Y13099943D01*
X24625350Y13099943D02*
X24672969Y13004705D01*
X24672969Y13004705D02*
X24672969Y12909467D01*
X24672969Y12909467D02*
X24625350Y12766610D01*
X24625350Y12766610D02*
X24053922Y12195181D01*
X24053922Y12195181D02*
X24672969Y12195181D01*
X25530112Y13195181D02*
X25339636Y13195181D01*
X25339636Y13195181D02*
X25244398Y13147562D01*
X25244398Y13147562D02*
X25196779Y13099943D01*
X25196779Y13099943D02*
X25101541Y12957086D01*
X25101541Y12957086D02*
X25053922Y12766610D01*
X25053922Y12766610D02*
X25053922Y12385658D01*
X25053922Y12385658D02*
X25101541Y12290420D01*
X25101541Y12290420D02*
X25149160Y12242800D01*
X25149160Y12242800D02*
X25244398Y12195181D01*
X25244398Y12195181D02*
X25434874Y12195181D01*
X25434874Y12195181D02*
X25530112Y12242800D01*
X25530112Y12242800D02*
X25577731Y12290420D01*
X25577731Y12290420D02*
X25625350Y12385658D01*
X25625350Y12385658D02*
X25625350Y12623753D01*
X25625350Y12623753D02*
X25577731Y12718991D01*
X25577731Y12718991D02*
X25530112Y12766610D01*
X25530112Y12766610D02*
X25434874Y12814229D01*
X25434874Y12814229D02*
X25244398Y12814229D01*
X25244398Y12814229D02*
X25149160Y12766610D01*
X25149160Y12766610D02*
X25101541Y12718991D01*
X25101541Y12718991D02*
X25053922Y12623753D01*
X26482493Y12861848D02*
X26482493Y12195181D01*
X26244398Y13242800D02*
X26006303Y12528515D01*
X26006303Y12528515D02*
X26625350Y12528515D01*
X33261541Y81775181D02*
X33928207Y81775181D01*
X33928207Y81775181D02*
X33499636Y80775181D01*
X34737731Y81441848D02*
X34737731Y80775181D01*
X34499636Y81822800D02*
X34261541Y81108515D01*
X34261541Y81108515D02*
X34880588Y81108515D01*
X35261541Y80775181D02*
X35261541Y81775181D01*
X35261541Y81298991D02*
X35832969Y81298991D01*
X35832969Y80775181D02*
X35832969Y81775181D01*
X36880588Y80870420D02*
X36832969Y80822800D01*
X36832969Y80822800D02*
X36690112Y80775181D01*
X36690112Y80775181D02*
X36594874Y80775181D01*
X36594874Y80775181D02*
X36452017Y80822800D01*
X36452017Y80822800D02*
X36356779Y80918039D01*
X36356779Y80918039D02*
X36309160Y81013277D01*
X36309160Y81013277D02*
X36261541Y81203753D01*
X36261541Y81203753D02*
X36261541Y81346610D01*
X36261541Y81346610D02*
X36309160Y81537086D01*
X36309160Y81537086D02*
X36356779Y81632324D01*
X36356779Y81632324D02*
X36452017Y81727562D01*
X36452017Y81727562D02*
X36594874Y81775181D01*
X36594874Y81775181D02*
X36690112Y81775181D01*
X36690112Y81775181D02*
X36832969Y81727562D01*
X36832969Y81727562D02*
X36880588Y81679943D01*
X37261541Y81679943D02*
X37309160Y81727562D01*
X37309160Y81727562D02*
X37404398Y81775181D01*
X37404398Y81775181D02*
X37642493Y81775181D01*
X37642493Y81775181D02*
X37737731Y81727562D01*
X37737731Y81727562D02*
X37785350Y81679943D01*
X37785350Y81679943D02*
X37832969Y81584705D01*
X37832969Y81584705D02*
X37832969Y81489467D01*
X37832969Y81489467D02*
X37785350Y81346610D01*
X37785350Y81346610D02*
X37213922Y80775181D01*
X37213922Y80775181D02*
X37832969Y80775181D01*
X38166303Y81775181D02*
X38832969Y81775181D01*
X38832969Y81775181D02*
X38404398Y80775181D01*
X39118684Y81775181D02*
X39737731Y81775181D01*
X39737731Y81775181D02*
X39404398Y81394229D01*
X39404398Y81394229D02*
X39547255Y81394229D01*
X39547255Y81394229D02*
X39642493Y81346610D01*
X39642493Y81346610D02*
X39690112Y81298991D01*
X39690112Y81298991D02*
X39737731Y81203753D01*
X39737731Y81203753D02*
X39737731Y80965658D01*
X39737731Y80965658D02*
X39690112Y80870420D01*
X39690112Y80870420D02*
X39642493Y80822800D01*
X39642493Y80822800D02*
X39547255Y80775181D01*
X39547255Y80775181D02*
X39261541Y80775181D01*
X39261541Y80775181D02*
X39166303Y80822800D01*
X39166303Y80822800D02*
X39118684Y80870420D01*
X65566847Y41779650D02*
X64900180Y41779650D01*
X65947800Y42017745D02*
X65233514Y42255840D01*
X65233514Y42255840D02*
X65233514Y41636793D01*
X65900180Y41065364D02*
X65900180Y40970126D01*
X65900180Y40970126D02*
X65852561Y40874888D01*
X65852561Y40874888D02*
X65804942Y40827269D01*
X65804942Y40827269D02*
X65709704Y40779650D01*
X65709704Y40779650D02*
X65519228Y40732031D01*
X65519228Y40732031D02*
X65281133Y40732031D01*
X65281133Y40732031D02*
X65090657Y40779650D01*
X65090657Y40779650D02*
X64995419Y40827269D01*
X64995419Y40827269D02*
X64947800Y40874888D01*
X64947800Y40874888D02*
X64900180Y40970126D01*
X64900180Y40970126D02*
X64900180Y41065364D01*
X64900180Y41065364D02*
X64947800Y41160602D01*
X64947800Y41160602D02*
X64995419Y41208221D01*
X64995419Y41208221D02*
X65090657Y41255840D01*
X65090657Y41255840D02*
X65281133Y41303459D01*
X65281133Y41303459D02*
X65519228Y41303459D01*
X65519228Y41303459D02*
X65709704Y41255840D01*
X65709704Y41255840D02*
X65804942Y41208221D01*
X65804942Y41208221D02*
X65852561Y41160602D01*
X65852561Y41160602D02*
X65900180Y41065364D01*
X64900180Y39779650D02*
X64900180Y40351078D01*
X64900180Y40065364D02*
X65900180Y40065364D01*
X65900180Y40065364D02*
X65757323Y40160602D01*
X65757323Y40160602D02*
X65662085Y40255840D01*
X65662085Y40255840D02*
X65614466Y40351078D01*
X65900180Y39446316D02*
X65900180Y38827269D01*
X65900180Y38827269D02*
X65519228Y39160602D01*
X65519228Y39160602D02*
X65519228Y39017745D01*
X65519228Y39017745D02*
X65471609Y38922507D01*
X65471609Y38922507D02*
X65423990Y38874888D01*
X65423990Y38874888D02*
X65328752Y38827269D01*
X65328752Y38827269D02*
X65090657Y38827269D01*
X65090657Y38827269D02*
X64995419Y38874888D01*
X64995419Y38874888D02*
X64947800Y38922507D01*
X64947800Y38922507D02*
X64900180Y39017745D01*
X64900180Y39017745D02*
X64900180Y39303459D01*
X64900180Y39303459D02*
X64947800Y39398697D01*
X64947800Y39398697D02*
X64995419Y39446316D01*
X59464580Y33928208D02*
X59512200Y33880589D01*
X59512200Y33880589D02*
X59559819Y33737732D01*
X59559819Y33737732D02*
X59559819Y33642494D01*
X59559819Y33642494D02*
X59512200Y33499637D01*
X59512200Y33499637D02*
X59416961Y33404399D01*
X59416961Y33404399D02*
X59321723Y33356780D01*
X59321723Y33356780D02*
X59131247Y33309161D01*
X59131247Y33309161D02*
X58988390Y33309161D01*
X58988390Y33309161D02*
X58797914Y33356780D01*
X58797914Y33356780D02*
X58702676Y33404399D01*
X58702676Y33404399D02*
X58607438Y33499637D01*
X58607438Y33499637D02*
X58559819Y33642494D01*
X58559819Y33642494D02*
X58559819Y33737732D01*
X58559819Y33737732D02*
X58607438Y33880589D01*
X58607438Y33880589D02*
X58655057Y33928208D01*
X59559819Y34356780D02*
X58559819Y34356780D01*
X58559819Y34356780D02*
X58559819Y34594875D01*
X58559819Y34594875D02*
X58607438Y34737732D01*
X58607438Y34737732D02*
X58702676Y34832970D01*
X58702676Y34832970D02*
X58797914Y34880589D01*
X58797914Y34880589D02*
X58988390Y34928208D01*
X58988390Y34928208D02*
X59131247Y34928208D01*
X59131247Y34928208D02*
X59321723Y34880589D01*
X59321723Y34880589D02*
X59416961Y34832970D01*
X59416961Y34832970D02*
X59512200Y34737732D01*
X59512200Y34737732D02*
X59559819Y34594875D01*
X59559819Y34594875D02*
X59559819Y34356780D01*
X59559819Y35356780D02*
X58559819Y35356780D01*
X58559819Y35356780D02*
X58559819Y35737732D01*
X58559819Y35737732D02*
X58607438Y35832970D01*
X58607438Y35832970D02*
X58655057Y35880589D01*
X58655057Y35880589D02*
X58750295Y35928208D01*
X58750295Y35928208D02*
X58893152Y35928208D01*
X58893152Y35928208D02*
X58988390Y35880589D01*
X58988390Y35880589D02*
X59036009Y35832970D01*
X59036009Y35832970D02*
X59083628Y35737732D01*
X59083628Y35737732D02*
X59083628Y35356780D01*
X59559819Y36880589D02*
X59559819Y36309161D01*
X59559819Y36594875D02*
X58559819Y36594875D01*
X58559819Y36594875D02*
X58702676Y36499637D01*
X58702676Y36499637D02*
X58797914Y36404399D01*
X58797914Y36404399D02*
X58845533Y36309161D01*
X58988390Y37452018D02*
X58940771Y37356780D01*
X58940771Y37356780D02*
X58893152Y37309161D01*
X58893152Y37309161D02*
X58797914Y37261542D01*
X58797914Y37261542D02*
X58750295Y37261542D01*
X58750295Y37261542D02*
X58655057Y37309161D01*
X58655057Y37309161D02*
X58607438Y37356780D01*
X58607438Y37356780D02*
X58559819Y37452018D01*
X58559819Y37452018D02*
X58559819Y37642494D01*
X58559819Y37642494D02*
X58607438Y37737732D01*
X58607438Y37737732D02*
X58655057Y37785351D01*
X58655057Y37785351D02*
X58750295Y37832970D01*
X58750295Y37832970D02*
X58797914Y37832970D01*
X58797914Y37832970D02*
X58893152Y37785351D01*
X58893152Y37785351D02*
X58940771Y37737732D01*
X58940771Y37737732D02*
X58988390Y37642494D01*
X58988390Y37642494D02*
X58988390Y37452018D01*
X58988390Y37452018D02*
X59036009Y37356780D01*
X59036009Y37356780D02*
X59083628Y37309161D01*
X59083628Y37309161D02*
X59178866Y37261542D01*
X59178866Y37261542D02*
X59369342Y37261542D01*
X59369342Y37261542D02*
X59464580Y37309161D01*
X59464580Y37309161D02*
X59512200Y37356780D01*
X59512200Y37356780D02*
X59559819Y37452018D01*
X59559819Y37452018D02*
X59559819Y37642494D01*
X59559819Y37642494D02*
X59512200Y37737732D01*
X59512200Y37737732D02*
X59464580Y37785351D01*
X59464580Y37785351D02*
X59369342Y37832970D01*
X59369342Y37832970D02*
X59178866Y37832970D01*
X59178866Y37832970D02*
X59083628Y37785351D01*
X59083628Y37785351D02*
X59036009Y37737732D01*
X59036009Y37737732D02*
X58988390Y37642494D01*
X58559819Y38452018D02*
X58559819Y38547256D01*
X58559819Y38547256D02*
X58607438Y38642494D01*
X58607438Y38642494D02*
X58655057Y38690113D01*
X58655057Y38690113D02*
X58750295Y38737732D01*
X58750295Y38737732D02*
X58940771Y38785351D01*
X58940771Y38785351D02*
X59178866Y38785351D01*
X59178866Y38785351D02*
X59369342Y38737732D01*
X59369342Y38737732D02*
X59464580Y38690113D01*
X59464580Y38690113D02*
X59512200Y38642494D01*
X59512200Y38642494D02*
X59559819Y38547256D01*
X59559819Y38547256D02*
X59559819Y38452018D01*
X59559819Y38452018D02*
X59512200Y38356780D01*
X59512200Y38356780D02*
X59464580Y38309161D01*
X59464580Y38309161D02*
X59369342Y38261542D01*
X59369342Y38261542D02*
X59178866Y38213923D01*
X59178866Y38213923D02*
X58940771Y38213923D01*
X58940771Y38213923D02*
X58750295Y38261542D01*
X58750295Y38261542D02*
X58655057Y38309161D01*
X58655057Y38309161D02*
X58607438Y38356780D01*
X58607438Y38356780D02*
X58559819Y38452018D01*
X58655057Y39166304D02*
X58607438Y39213923D01*
X58607438Y39213923D02*
X58559819Y39309161D01*
X58559819Y39309161D02*
X58559819Y39547256D01*
X58559819Y39547256D02*
X58607438Y39642494D01*
X58607438Y39642494D02*
X58655057Y39690113D01*
X58655057Y39690113D02*
X58750295Y39737732D01*
X58750295Y39737732D02*
X58845533Y39737732D01*
X58845533Y39737732D02*
X58988390Y39690113D01*
X58988390Y39690113D02*
X59559819Y39118685D01*
X59559819Y39118685D02*
X59559819Y39737732D01*
D14*
X25850299Y73437515D02*
X25764585Y73351800D01*
X25764585Y73351800D02*
X25507442Y73266086D01*
X25507442Y73266086D02*
X25336014Y73266086D01*
X25336014Y73266086D02*
X25078871Y73351800D01*
X25078871Y73351800D02*
X24907442Y73523229D01*
X24907442Y73523229D02*
X24821728Y73694658D01*
X24821728Y73694658D02*
X24736014Y74037515D01*
X24736014Y74037515D02*
X24736014Y74294658D01*
X24736014Y74294658D02*
X24821728Y74637515D01*
X24821728Y74637515D02*
X24907442Y74808943D01*
X24907442Y74808943D02*
X25078871Y74980372D01*
X25078871Y74980372D02*
X25336014Y75066086D01*
X25336014Y75066086D02*
X25507442Y75066086D01*
X25507442Y75066086D02*
X25764585Y74980372D01*
X25764585Y74980372D02*
X25850299Y74894658D01*
X26964585Y75066086D02*
X27307442Y75066086D01*
X27307442Y75066086D02*
X27478871Y74980372D01*
X27478871Y74980372D02*
X27650299Y74808943D01*
X27650299Y74808943D02*
X27736014Y74466086D01*
X27736014Y74466086D02*
X27736014Y73866086D01*
X27736014Y73866086D02*
X27650299Y73523229D01*
X27650299Y73523229D02*
X27478871Y73351800D01*
X27478871Y73351800D02*
X27307442Y73266086D01*
X27307442Y73266086D02*
X26964585Y73266086D01*
X26964585Y73266086D02*
X26793157Y73351800D01*
X26793157Y73351800D02*
X26621728Y73523229D01*
X26621728Y73523229D02*
X26536014Y73866086D01*
X26536014Y73866086D02*
X26536014Y74466086D01*
X26536014Y74466086D02*
X26621728Y74808943D01*
X26621728Y74808943D02*
X26793157Y74980372D01*
X26793157Y74980372D02*
X26964585Y75066086D01*
X28421728Y73351800D02*
X28678871Y73266086D01*
X28678871Y73266086D02*
X29107442Y73266086D01*
X29107442Y73266086D02*
X29278871Y73351800D01*
X29278871Y73351800D02*
X29364585Y73437515D01*
X29364585Y73437515D02*
X29450299Y73608943D01*
X29450299Y73608943D02*
X29450299Y73780372D01*
X29450299Y73780372D02*
X29364585Y73951800D01*
X29364585Y73951800D02*
X29278871Y74037515D01*
X29278871Y74037515D02*
X29107442Y74123229D01*
X29107442Y74123229D02*
X28764585Y74208943D01*
X28764585Y74208943D02*
X28593156Y74294658D01*
X28593156Y74294658D02*
X28507442Y74380372D01*
X28507442Y74380372D02*
X28421728Y74551800D01*
X28421728Y74551800D02*
X28421728Y74723229D01*
X28421728Y74723229D02*
X28507442Y74894658D01*
X28507442Y74894658D02*
X28593156Y74980372D01*
X28593156Y74980372D02*
X28764585Y75066086D01*
X28764585Y75066086D02*
X29193156Y75066086D01*
X29193156Y75066086D02*
X29450299Y74980372D01*
X30221728Y73266086D02*
X30221728Y75066086D01*
X30221728Y75066086D02*
X30821728Y73780372D01*
X30821728Y73780372D02*
X31421728Y75066086D01*
X31421728Y75066086D02*
X31421728Y73266086D01*
X32193157Y73780372D02*
X33050300Y73780372D01*
X32021728Y73266086D02*
X32621728Y75066086D01*
X32621728Y75066086D02*
X33221728Y73266086D01*
X34850299Y73437515D02*
X34764585Y73351800D01*
X34764585Y73351800D02*
X34507442Y73266086D01*
X34507442Y73266086D02*
X34336014Y73266086D01*
X34336014Y73266086D02*
X34078871Y73351800D01*
X34078871Y73351800D02*
X33907442Y73523229D01*
X33907442Y73523229D02*
X33821728Y73694658D01*
X33821728Y73694658D02*
X33736014Y74037515D01*
X33736014Y74037515D02*
X33736014Y74294658D01*
X33736014Y74294658D02*
X33821728Y74637515D01*
X33821728Y74637515D02*
X33907442Y74808943D01*
X33907442Y74808943D02*
X34078871Y74980372D01*
X34078871Y74980372D02*
X34336014Y75066086D01*
X34336014Y75066086D02*
X34507442Y75066086D01*
X34507442Y75066086D02*
X34764585Y74980372D01*
X34764585Y74980372D02*
X34850299Y74894658D01*
X36736014Y75066086D02*
X37764586Y75066086D01*
X37250300Y73266086D02*
X37250300Y75066086D01*
X38707443Y75066086D02*
X39050300Y75066086D01*
X39050300Y75066086D02*
X39221729Y74980372D01*
X39221729Y74980372D02*
X39393157Y74808943D01*
X39393157Y74808943D02*
X39478872Y74466086D01*
X39478872Y74466086D02*
X39478872Y73866086D01*
X39478872Y73866086D02*
X39393157Y73523229D01*
X39393157Y73523229D02*
X39221729Y73351800D01*
X39221729Y73351800D02*
X39050300Y73266086D01*
X39050300Y73266086D02*
X38707443Y73266086D01*
X38707443Y73266086D02*
X38536015Y73351800D01*
X38536015Y73351800D02*
X38364586Y73523229D01*
X38364586Y73523229D02*
X38278872Y73866086D01*
X38278872Y73866086D02*
X38278872Y74466086D01*
X38278872Y74466086D02*
X38364586Y74808943D01*
X38364586Y74808943D02*
X38536015Y74980372D01*
X38536015Y74980372D02*
X38707443Y75066086D01*
X40593157Y74123229D02*
X40593157Y73266086D01*
X39993157Y75066086D02*
X40593157Y74123229D01*
X40593157Y74123229D02*
X41193157Y75066086D01*
X42907443Y75066086D02*
X43507443Y73266086D01*
X43507443Y73266086D02*
X44107443Y75066086D01*
X44621729Y74894658D02*
X44707443Y74980372D01*
X44707443Y74980372D02*
X44878872Y75066086D01*
X44878872Y75066086D02*
X45307443Y75066086D01*
X45307443Y75066086D02*
X45478872Y74980372D01*
X45478872Y74980372D02*
X45564586Y74894658D01*
X45564586Y74894658D02*
X45650300Y74723229D01*
X45650300Y74723229D02*
X45650300Y74551800D01*
X45650300Y74551800D02*
X45564586Y74294658D01*
X45564586Y74294658D02*
X44536014Y73266086D01*
X44536014Y73266086D02*
X45650300Y73266086D01*
D10*
X52406779Y69345181D02*
X52406779Y70345181D01*
X52978207Y69345181D02*
X52549636Y69916610D01*
X52978207Y70345181D02*
X52406779Y69773753D01*
X10496779Y69345181D02*
X10496779Y70345181D01*
X11068207Y69345181D02*
X10639636Y69916610D01*
X11068207Y70345181D02*
X10496779Y69773753D01*
X31451779Y69345181D02*
X31451779Y70345181D01*
X32023207Y69345181D02*
X31594636Y69916610D01*
X32023207Y70345181D02*
X31451779Y69773753D01*
X65566847Y17014650D02*
X64900180Y17014650D01*
X65947800Y17252745D02*
X65233514Y17490840D01*
X65233514Y17490840D02*
X65233514Y16871793D01*
X65900180Y16300364D02*
X65900180Y16205126D01*
X65900180Y16205126D02*
X65852561Y16109888D01*
X65852561Y16109888D02*
X65804942Y16062269D01*
X65804942Y16062269D02*
X65709704Y16014650D01*
X65709704Y16014650D02*
X65519228Y15967031D01*
X65519228Y15967031D02*
X65281133Y15967031D01*
X65281133Y15967031D02*
X65090657Y16014650D01*
X65090657Y16014650D02*
X64995419Y16062269D01*
X64995419Y16062269D02*
X64947800Y16109888D01*
X64947800Y16109888D02*
X64900180Y16205126D01*
X64900180Y16205126D02*
X64900180Y16300364D01*
X64900180Y16300364D02*
X64947800Y16395602D01*
X64947800Y16395602D02*
X64995419Y16443221D01*
X64995419Y16443221D02*
X65090657Y16490840D01*
X65090657Y16490840D02*
X65281133Y16538459D01*
X65281133Y16538459D02*
X65519228Y16538459D01*
X65519228Y16538459D02*
X65709704Y16490840D01*
X65709704Y16490840D02*
X65804942Y16443221D01*
X65804942Y16443221D02*
X65852561Y16395602D01*
X65852561Y16395602D02*
X65900180Y16300364D01*
X65900180Y15347983D02*
X65900180Y15252745D01*
X65900180Y15252745D02*
X65852561Y15157507D01*
X65852561Y15157507D02*
X65804942Y15109888D01*
X65804942Y15109888D02*
X65709704Y15062269D01*
X65709704Y15062269D02*
X65519228Y15014650D01*
X65519228Y15014650D02*
X65281133Y15014650D01*
X65281133Y15014650D02*
X65090657Y15062269D01*
X65090657Y15062269D02*
X64995419Y15109888D01*
X64995419Y15109888D02*
X64947800Y15157507D01*
X64947800Y15157507D02*
X64900180Y15252745D01*
X64900180Y15252745D02*
X64900180Y15347983D01*
X64900180Y15347983D02*
X64947800Y15443221D01*
X64947800Y15443221D02*
X64995419Y15490840D01*
X64995419Y15490840D02*
X65090657Y15538459D01*
X65090657Y15538459D02*
X65281133Y15586078D01*
X65281133Y15586078D02*
X65519228Y15586078D01*
X65519228Y15586078D02*
X65709704Y15538459D01*
X65709704Y15538459D02*
X65804942Y15490840D01*
X65804942Y15490840D02*
X65852561Y15443221D01*
X65852561Y15443221D02*
X65900180Y15347983D01*
X64900180Y14062269D02*
X64900180Y14633697D01*
X64900180Y14347983D02*
X65900180Y14347983D01*
X65900180Y14347983D02*
X65757323Y14443221D01*
X65757323Y14443221D02*
X65662085Y14538459D01*
X65662085Y14538459D02*
X65614466Y14633697D01*
X17481779Y69345181D02*
X17481779Y70345181D01*
X18053207Y69345181D02*
X17624636Y69916610D01*
X18053207Y70345181D02*
X17481779Y69773753D01*
D12*
X68005701Y85276934D02*
X67539034Y85943600D01*
X67205701Y85276934D02*
X67205701Y86676934D01*
X67205701Y86676934D02*
X67739034Y86676934D01*
X67739034Y86676934D02*
X67872368Y86610267D01*
X67872368Y86610267D02*
X67939034Y86543600D01*
X67939034Y86543600D02*
X68005701Y86410267D01*
X68005701Y86410267D02*
X68005701Y86210267D01*
X68005701Y86210267D02*
X67939034Y86076934D01*
X67939034Y86076934D02*
X67872368Y86010267D01*
X67872368Y86010267D02*
X67739034Y85943600D01*
X67739034Y85943600D02*
X67205701Y85943600D01*
X68472368Y86676934D02*
X68805701Y85276934D01*
X68805701Y85276934D02*
X69072368Y86276934D01*
X69072368Y86276934D02*
X69339034Y85276934D01*
X69339034Y85276934D02*
X69672368Y86676934D01*
X57210701Y85276934D02*
X56744034Y85943600D01*
X56410701Y85276934D02*
X56410701Y86676934D01*
X56410701Y86676934D02*
X56944034Y86676934D01*
X56944034Y86676934D02*
X57077368Y86610267D01*
X57077368Y86610267D02*
X57144034Y86543600D01*
X57144034Y86543600D02*
X57210701Y86410267D01*
X57210701Y86410267D02*
X57210701Y86210267D01*
X57210701Y86210267D02*
X57144034Y86076934D01*
X57144034Y86076934D02*
X57077368Y86010267D01*
X57077368Y86010267D02*
X56944034Y85943600D01*
X56944034Y85943600D02*
X56410701Y85943600D01*
X57810701Y86676934D02*
X57810701Y85543600D01*
X57810701Y85543600D02*
X57877368Y85410267D01*
X57877368Y85410267D02*
X57944034Y85343600D01*
X57944034Y85343600D02*
X58077368Y85276934D01*
X58077368Y85276934D02*
X58344034Y85276934D01*
X58344034Y85276934D02*
X58477368Y85343600D01*
X58477368Y85343600D02*
X58544034Y85410267D01*
X58544034Y85410267D02*
X58610701Y85543600D01*
X58610701Y85543600D02*
X58610701Y86676934D01*
X59277368Y85276934D02*
X59277368Y86676934D01*
X59277368Y86676934D02*
X60077368Y85276934D01*
X60077368Y85276934D02*
X60077368Y86676934D01*
D13*
X10628006Y1427258D02*
X10228006Y1998686D01*
X9942292Y1427258D02*
X9942292Y2627258D01*
X9942292Y2627258D02*
X10399435Y2627258D01*
X10399435Y2627258D02*
X10513720Y2570115D01*
X10513720Y2570115D02*
X10570863Y2512972D01*
X10570863Y2512972D02*
X10628006Y2398686D01*
X10628006Y2398686D02*
X10628006Y2227258D01*
X10628006Y2227258D02*
X10570863Y2112972D01*
X10570863Y2112972D02*
X10513720Y2055829D01*
X10513720Y2055829D02*
X10399435Y1998686D01*
X10399435Y1998686D02*
X9942292Y1998686D01*
X11599435Y1484400D02*
X11485149Y1427258D01*
X11485149Y1427258D02*
X11256578Y1427258D01*
X11256578Y1427258D02*
X11142292Y1484400D01*
X11142292Y1484400D02*
X11085149Y1598686D01*
X11085149Y1598686D02*
X11085149Y2055829D01*
X11085149Y2055829D02*
X11142292Y2170115D01*
X11142292Y2170115D02*
X11256578Y2227258D01*
X11256578Y2227258D02*
X11485149Y2227258D01*
X11485149Y2227258D02*
X11599435Y2170115D01*
X11599435Y2170115D02*
X11656578Y2055829D01*
X11656578Y2055829D02*
X11656578Y1941543D01*
X11656578Y1941543D02*
X11085149Y1827258D01*
X12056577Y2227258D02*
X12342291Y1427258D01*
X12342291Y1427258D02*
X12628006Y2227258D01*
X13085149Y1541543D02*
X13142292Y1484400D01*
X13142292Y1484400D02*
X13085149Y1427258D01*
X13085149Y1427258D02*
X13028006Y1484400D01*
X13028006Y1484400D02*
X13085149Y1541543D01*
X13085149Y1541543D02*
X13085149Y1427258D01*
X13885149Y2627258D02*
X13999435Y2627258D01*
X13999435Y2627258D02*
X14113721Y2570115D01*
X14113721Y2570115D02*
X14170864Y2512972D01*
X14170864Y2512972D02*
X14228006Y2398686D01*
X14228006Y2398686D02*
X14285149Y2170115D01*
X14285149Y2170115D02*
X14285149Y1884400D01*
X14285149Y1884400D02*
X14228006Y1655829D01*
X14228006Y1655829D02*
X14170864Y1541543D01*
X14170864Y1541543D02*
X14113721Y1484400D01*
X14113721Y1484400D02*
X13999435Y1427258D01*
X13999435Y1427258D02*
X13885149Y1427258D01*
X13885149Y1427258D02*
X13770864Y1484400D01*
X13770864Y1484400D02*
X13713721Y1541543D01*
X13713721Y1541543D02*
X13656578Y1655829D01*
X13656578Y1655829D02*
X13599435Y1884400D01*
X13599435Y1884400D02*
X13599435Y2170115D01*
X13599435Y2170115D02*
X13656578Y2398686D01*
X13656578Y2398686D02*
X13713721Y2512972D01*
X13713721Y2512972D02*
X13770864Y2570115D01*
X13770864Y2570115D02*
X13885149Y2627258D01*
X14799435Y1541543D02*
X14856578Y1484400D01*
X14856578Y1484400D02*
X14799435Y1427258D01*
X14799435Y1427258D02*
X14742292Y1484400D01*
X14742292Y1484400D02*
X14799435Y1541543D01*
X14799435Y1541543D02*
X14799435Y1427258D01*
X15313721Y2512972D02*
X15370864Y2570115D01*
X15370864Y2570115D02*
X15485150Y2627258D01*
X15485150Y2627258D02*
X15770864Y2627258D01*
X15770864Y2627258D02*
X15885150Y2570115D01*
X15885150Y2570115D02*
X15942292Y2512972D01*
X15942292Y2512972D02*
X15999435Y2398686D01*
X15999435Y2398686D02*
X15999435Y2284400D01*
X15999435Y2284400D02*
X15942292Y2112972D01*
X15942292Y2112972D02*
X15256578Y1427258D01*
X15256578Y1427258D02*
X15999435Y1427258D01*
X17370864Y2512972D02*
X17428007Y2570115D01*
X17428007Y2570115D02*
X17542293Y2627258D01*
X17542293Y2627258D02*
X17828007Y2627258D01*
X17828007Y2627258D02*
X17942293Y2570115D01*
X17942293Y2570115D02*
X17999435Y2512972D01*
X17999435Y2512972D02*
X18056578Y2398686D01*
X18056578Y2398686D02*
X18056578Y2284400D01*
X18056578Y2284400D02*
X17999435Y2112972D01*
X17999435Y2112972D02*
X17313721Y1427258D01*
X17313721Y1427258D02*
X18056578Y1427258D01*
X18799435Y2627258D02*
X18913721Y2627258D01*
X18913721Y2627258D02*
X19028007Y2570115D01*
X19028007Y2570115D02*
X19085150Y2512972D01*
X19085150Y2512972D02*
X19142292Y2398686D01*
X19142292Y2398686D02*
X19199435Y2170115D01*
X19199435Y2170115D02*
X19199435Y1884400D01*
X19199435Y1884400D02*
X19142292Y1655829D01*
X19142292Y1655829D02*
X19085150Y1541543D01*
X19085150Y1541543D02*
X19028007Y1484400D01*
X19028007Y1484400D02*
X18913721Y1427258D01*
X18913721Y1427258D02*
X18799435Y1427258D01*
X18799435Y1427258D02*
X18685150Y1484400D01*
X18685150Y1484400D02*
X18628007Y1541543D01*
X18628007Y1541543D02*
X18570864Y1655829D01*
X18570864Y1655829D02*
X18513721Y1884400D01*
X18513721Y1884400D02*
X18513721Y2170115D01*
X18513721Y2170115D02*
X18570864Y2398686D01*
X18570864Y2398686D02*
X18628007Y2512972D01*
X18628007Y2512972D02*
X18685150Y2570115D01*
X18685150Y2570115D02*
X18799435Y2627258D01*
X19656578Y2512972D02*
X19713721Y2570115D01*
X19713721Y2570115D02*
X19828007Y2627258D01*
X19828007Y2627258D02*
X20113721Y2627258D01*
X20113721Y2627258D02*
X20228007Y2570115D01*
X20228007Y2570115D02*
X20285149Y2512972D01*
X20285149Y2512972D02*
X20342292Y2398686D01*
X20342292Y2398686D02*
X20342292Y2284400D01*
X20342292Y2284400D02*
X20285149Y2112972D01*
X20285149Y2112972D02*
X19599435Y1427258D01*
X19599435Y1427258D02*
X20342292Y1427258D01*
X21370864Y2227258D02*
X21370864Y1427258D01*
X21085149Y2684400D02*
X20799435Y1827258D01*
X20799435Y1827258D02*
X21542292Y1827258D01*
X21999435Y1884400D02*
X22913721Y1884400D01*
X24113720Y1427258D02*
X23428006Y1427258D01*
X23770863Y1427258D02*
X23770863Y2627258D01*
X23770863Y2627258D02*
X23656577Y2455829D01*
X23656577Y2455829D02*
X23542292Y2341543D01*
X23542292Y2341543D02*
X23428006Y2284400D01*
X25256577Y1427258D02*
X24570863Y1427258D01*
X24913720Y1427258D02*
X24913720Y2627258D01*
X24913720Y2627258D02*
X24799434Y2455829D01*
X24799434Y2455829D02*
X24685149Y2341543D01*
X24685149Y2341543D02*
X24570863Y2284400D01*
X25770863Y1884400D02*
X26685149Y1884400D01*
X27199434Y2512972D02*
X27256577Y2570115D01*
X27256577Y2570115D02*
X27370863Y2627258D01*
X27370863Y2627258D02*
X27656577Y2627258D01*
X27656577Y2627258D02*
X27770863Y2570115D01*
X27770863Y2570115D02*
X27828005Y2512972D01*
X27828005Y2512972D02*
X27885148Y2398686D01*
X27885148Y2398686D02*
X27885148Y2284400D01*
X27885148Y2284400D02*
X27828005Y2112972D01*
X27828005Y2112972D02*
X27142291Y1427258D01*
X27142291Y1427258D02*
X27885148Y1427258D01*
X28285148Y2627258D02*
X29085148Y2627258D01*
X29085148Y2627258D02*
X28570862Y1427258D01*
X31199434Y1998686D02*
X31142291Y2055829D01*
X31142291Y2055829D02*
X31028005Y2112972D01*
X31028005Y2112972D02*
X30913720Y2112972D01*
X30913720Y2112972D02*
X30799434Y2055829D01*
X30799434Y2055829D02*
X30742291Y1998686D01*
X30742291Y1998686D02*
X30685148Y1884400D01*
X30685148Y1884400D02*
X30685148Y1770115D01*
X30685148Y1770115D02*
X30742291Y1655829D01*
X30742291Y1655829D02*
X30799434Y1598686D01*
X30799434Y1598686D02*
X30913720Y1541543D01*
X30913720Y1541543D02*
X31028005Y1541543D01*
X31028005Y1541543D02*
X31142291Y1598686D01*
X31142291Y1598686D02*
X31199434Y1655829D01*
X31199434Y2112972D02*
X31199434Y1655829D01*
X31199434Y1655829D02*
X31256577Y1598686D01*
X31256577Y1598686D02*
X31313720Y1598686D01*
X31313720Y1598686D02*
X31428005Y1655829D01*
X31428005Y1655829D02*
X31485148Y1770115D01*
X31485148Y1770115D02*
X31485148Y2055829D01*
X31485148Y2055829D02*
X31370863Y2227258D01*
X31370863Y2227258D02*
X31199434Y2341543D01*
X31199434Y2341543D02*
X30970863Y2398686D01*
X30970863Y2398686D02*
X30742291Y2341543D01*
X30742291Y2341543D02*
X30570863Y2227258D01*
X30570863Y2227258D02*
X30456577Y2055829D01*
X30456577Y2055829D02*
X30399434Y1827258D01*
X30399434Y1827258D02*
X30456577Y1598686D01*
X30456577Y1598686D02*
X30570863Y1427258D01*
X30570863Y1427258D02*
X30742291Y1312972D01*
X30742291Y1312972D02*
X30970863Y1255829D01*
X30970863Y1255829D02*
X31199434Y1312972D01*
X31199434Y1312972D02*
X31370863Y1427258D01*
X31999434Y1427258D02*
X31999434Y2627258D01*
X32113720Y1884400D02*
X32456577Y1427258D01*
X32456577Y2227258D02*
X31999434Y1770115D01*
X33485149Y1427258D02*
X33485149Y2055829D01*
X33485149Y2055829D02*
X33428006Y2170115D01*
X33428006Y2170115D02*
X33313720Y2227258D01*
X33313720Y2227258D02*
X33085149Y2227258D01*
X33085149Y2227258D02*
X32970863Y2170115D01*
X33485149Y1484400D02*
X33370863Y1427258D01*
X33370863Y1427258D02*
X33085149Y1427258D01*
X33085149Y1427258D02*
X32970863Y1484400D01*
X32970863Y1484400D02*
X32913720Y1598686D01*
X32913720Y1598686D02*
X32913720Y1712972D01*
X32913720Y1712972D02*
X32970863Y1827258D01*
X32970863Y1827258D02*
X33085149Y1884400D01*
X33085149Y1884400D02*
X33370863Y1884400D01*
X33370863Y1884400D02*
X33485149Y1941543D01*
X34056577Y2227258D02*
X34056577Y1427258D01*
X34056577Y2112972D02*
X34113720Y2170115D01*
X34113720Y2170115D02*
X34228005Y2227258D01*
X34228005Y2227258D02*
X34399434Y2227258D01*
X34399434Y2227258D02*
X34513720Y2170115D01*
X34513720Y2170115D02*
X34570863Y2055829D01*
X34570863Y2055829D02*
X34570863Y1427258D01*
X35142291Y2227258D02*
X35142291Y1027258D01*
X35142291Y2170115D02*
X35256577Y2227258D01*
X35256577Y2227258D02*
X35485148Y2227258D01*
X35485148Y2227258D02*
X35599434Y2170115D01*
X35599434Y2170115D02*
X35656577Y2112972D01*
X35656577Y2112972D02*
X35713719Y1998686D01*
X35713719Y1998686D02*
X35713719Y1655829D01*
X35713719Y1655829D02*
X35656577Y1541543D01*
X35656577Y1541543D02*
X35599434Y1484400D01*
X35599434Y1484400D02*
X35485148Y1427258D01*
X35485148Y1427258D02*
X35256577Y1427258D01*
X35256577Y1427258D02*
X35142291Y1484400D01*
X36742291Y1427258D02*
X36742291Y2055829D01*
X36742291Y2055829D02*
X36685148Y2170115D01*
X36685148Y2170115D02*
X36570862Y2227258D01*
X36570862Y2227258D02*
X36342291Y2227258D01*
X36342291Y2227258D02*
X36228005Y2170115D01*
X36742291Y1484400D02*
X36628005Y1427258D01*
X36628005Y1427258D02*
X36342291Y1427258D01*
X36342291Y1427258D02*
X36228005Y1484400D01*
X36228005Y1484400D02*
X36170862Y1598686D01*
X36170862Y1598686D02*
X36170862Y1712972D01*
X36170862Y1712972D02*
X36228005Y1827258D01*
X36228005Y1827258D02*
X36342291Y1884400D01*
X36342291Y1884400D02*
X36628005Y1884400D01*
X36628005Y1884400D02*
X36742291Y1941543D01*
X37313719Y2227258D02*
X37313719Y1027258D01*
X37313719Y2170115D02*
X37428005Y2227258D01*
X37428005Y2227258D02*
X37656576Y2227258D01*
X37656576Y2227258D02*
X37770862Y2170115D01*
X37770862Y2170115D02*
X37828005Y2112972D01*
X37828005Y2112972D02*
X37885147Y1998686D01*
X37885147Y1998686D02*
X37885147Y1655829D01*
X37885147Y1655829D02*
X37828005Y1541543D01*
X37828005Y1541543D02*
X37770862Y1484400D01*
X37770862Y1484400D02*
X37656576Y1427258D01*
X37656576Y1427258D02*
X37428005Y1427258D01*
X37428005Y1427258D02*
X37313719Y1484400D01*
X38913719Y1427258D02*
X38913719Y2055829D01*
X38913719Y2055829D02*
X38856576Y2170115D01*
X38856576Y2170115D02*
X38742290Y2227258D01*
X38742290Y2227258D02*
X38513719Y2227258D01*
X38513719Y2227258D02*
X38399433Y2170115D01*
X38913719Y1484400D02*
X38799433Y1427258D01*
X38799433Y1427258D02*
X38513719Y1427258D01*
X38513719Y1427258D02*
X38399433Y1484400D01*
X38399433Y1484400D02*
X38342290Y1598686D01*
X38342290Y1598686D02*
X38342290Y1712972D01*
X38342290Y1712972D02*
X38399433Y1827258D01*
X38399433Y1827258D02*
X38513719Y1884400D01*
X38513719Y1884400D02*
X38799433Y1884400D01*
X38799433Y1884400D02*
X38913719Y1941543D01*
D10*
X6804819Y59523334D02*
X6328628Y59190001D01*
X6804819Y58951906D02*
X5804819Y58951906D01*
X5804819Y58951906D02*
X5804819Y59332858D01*
X5804819Y59332858D02*
X5852438Y59428096D01*
X5852438Y59428096D02*
X5900057Y59475715D01*
X5900057Y59475715D02*
X5995295Y59523334D01*
X5995295Y59523334D02*
X6138152Y59523334D01*
X6138152Y59523334D02*
X6233390Y59475715D01*
X6233390Y59475715D02*
X6281009Y59428096D01*
X6281009Y59428096D02*
X6328628Y59332858D01*
X6328628Y59332858D02*
X6328628Y58951906D01*
X6804819Y59999525D02*
X6804819Y60190001D01*
X6804819Y60190001D02*
X6757200Y60285239D01*
X6757200Y60285239D02*
X6709580Y60332858D01*
X6709580Y60332858D02*
X6566723Y60428096D01*
X6566723Y60428096D02*
X6376247Y60475715D01*
X6376247Y60475715D02*
X5995295Y60475715D01*
X5995295Y60475715D02*
X5900057Y60428096D01*
X5900057Y60428096D02*
X5852438Y60380477D01*
X5852438Y60380477D02*
X5804819Y60285239D01*
X5804819Y60285239D02*
X5804819Y60094763D01*
X5804819Y60094763D02*
X5852438Y59999525D01*
X5852438Y59999525D02*
X5900057Y59951906D01*
X5900057Y59951906D02*
X5995295Y59904287D01*
X5995295Y59904287D02*
X6233390Y59904287D01*
X6233390Y59904287D02*
X6328628Y59951906D01*
X6328628Y59951906D02*
X6376247Y59999525D01*
X6376247Y59999525D02*
X6423866Y60094763D01*
X6423866Y60094763D02*
X6423866Y60285239D01*
X6423866Y60285239D02*
X6376247Y60380477D01*
X6376247Y60380477D02*
X6328628Y60428096D01*
X6328628Y60428096D02*
X6233390Y60475715D01*
X64643095Y27005181D02*
X64643095Y26195658D01*
X64643095Y26195658D02*
X64690714Y26100420D01*
X64690714Y26100420D02*
X64738333Y26052800D01*
X64738333Y26052800D02*
X64833571Y26005181D01*
X64833571Y26005181D02*
X65024047Y26005181D01*
X65024047Y26005181D02*
X65119285Y26052800D01*
X65119285Y26052800D02*
X65166904Y26100420D01*
X65166904Y26100420D02*
X65214523Y26195658D01*
X65214523Y26195658D02*
X65214523Y27005181D01*
X65595476Y27005181D02*
X66214523Y27005181D01*
X66214523Y27005181D02*
X65881190Y26624229D01*
X65881190Y26624229D02*
X66024047Y26624229D01*
X66024047Y26624229D02*
X66119285Y26576610D01*
X66119285Y26576610D02*
X66166904Y26528991D01*
X66166904Y26528991D02*
X66214523Y26433753D01*
X66214523Y26433753D02*
X66214523Y26195658D01*
X66214523Y26195658D02*
X66166904Y26100420D01*
X66166904Y26100420D02*
X66119285Y26052800D01*
X66119285Y26052800D02*
X66024047Y26005181D01*
X66024047Y26005181D02*
X65738333Y26005181D01*
X65738333Y26005181D02*
X65643095Y26052800D01*
X65643095Y26052800D02*
X65595476Y26100420D01*
X15867142Y71470181D02*
X15533809Y71946372D01*
X15295714Y71470181D02*
X15295714Y72470181D01*
X15295714Y72470181D02*
X15676666Y72470181D01*
X15676666Y72470181D02*
X15771904Y72422562D01*
X15771904Y72422562D02*
X15819523Y72374943D01*
X15819523Y72374943D02*
X15867142Y72279705D01*
X15867142Y72279705D02*
X15867142Y72136848D01*
X15867142Y72136848D02*
X15819523Y72041610D01*
X15819523Y72041610D02*
X15771904Y71993991D01*
X15771904Y71993991D02*
X15676666Y71946372D01*
X15676666Y71946372D02*
X15295714Y71946372D01*
X16819523Y71470181D02*
X16248095Y71470181D01*
X16533809Y71470181D02*
X16533809Y72470181D01*
X16533809Y72470181D02*
X16438571Y72327324D01*
X16438571Y72327324D02*
X16343333Y72232086D01*
X16343333Y72232086D02*
X16248095Y72184467D01*
X17438571Y72470181D02*
X17533809Y72470181D01*
X17533809Y72470181D02*
X17629047Y72422562D01*
X17629047Y72422562D02*
X17676666Y72374943D01*
X17676666Y72374943D02*
X17724285Y72279705D01*
X17724285Y72279705D02*
X17771904Y72089229D01*
X17771904Y72089229D02*
X17771904Y71851134D01*
X17771904Y71851134D02*
X17724285Y71660658D01*
X17724285Y71660658D02*
X17676666Y71565420D01*
X17676666Y71565420D02*
X17629047Y71517800D01*
X17629047Y71517800D02*
X17533809Y71470181D01*
X17533809Y71470181D02*
X17438571Y71470181D01*
X17438571Y71470181D02*
X17343333Y71517800D01*
X17343333Y71517800D02*
X17295714Y71565420D01*
X17295714Y71565420D02*
X17248095Y71660658D01*
X17248095Y71660658D02*
X17200476Y71851134D01*
X17200476Y71851134D02*
X17200476Y72089229D01*
X17200476Y72089229D02*
X17248095Y72279705D01*
X17248095Y72279705D02*
X17295714Y72374943D01*
X17295714Y72374943D02*
X17343333Y72422562D01*
X17343333Y72422562D02*
X17438571Y72470181D01*
X5169819Y46656667D02*
X5884104Y46656667D01*
X5884104Y46656667D02*
X6026961Y46609048D01*
X6026961Y46609048D02*
X6122200Y46513810D01*
X6122200Y46513810D02*
X6169819Y46370953D01*
X6169819Y46370953D02*
X6169819Y46275715D01*
X5265057Y47085239D02*
X5217438Y47132858D01*
X5217438Y47132858D02*
X5169819Y47228096D01*
X5169819Y47228096D02*
X5169819Y47466191D01*
X5169819Y47466191D02*
X5217438Y47561429D01*
X5217438Y47561429D02*
X5265057Y47609048D01*
X5265057Y47609048D02*
X5360295Y47656667D01*
X5360295Y47656667D02*
X5455533Y47656667D01*
X5455533Y47656667D02*
X5598390Y47609048D01*
X5598390Y47609048D02*
X6169819Y47037620D01*
X6169819Y47037620D02*
X6169819Y47656667D01*
X5169819Y24431667D02*
X5884104Y24431667D01*
X5884104Y24431667D02*
X6026961Y24384048D01*
X6026961Y24384048D02*
X6122200Y24288810D01*
X6122200Y24288810D02*
X6169819Y24145953D01*
X6169819Y24145953D02*
X6169819Y24050715D01*
X6169819Y25431667D02*
X6169819Y24860239D01*
X6169819Y25145953D02*
X5169819Y25145953D01*
X5169819Y25145953D02*
X5312676Y25050715D01*
X5312676Y25050715D02*
X5407914Y24955477D01*
X5407914Y24955477D02*
X5455533Y24860239D01*
X25971667Y61447800D02*
X26114524Y61400181D01*
X26114524Y61400181D02*
X26352619Y61400181D01*
X26352619Y61400181D02*
X26447857Y61447800D01*
X26447857Y61447800D02*
X26495476Y61495420D01*
X26495476Y61495420D02*
X26543095Y61590658D01*
X26543095Y61590658D02*
X26543095Y61685896D01*
X26543095Y61685896D02*
X26495476Y61781134D01*
X26495476Y61781134D02*
X26447857Y61828753D01*
X26447857Y61828753D02*
X26352619Y61876372D01*
X26352619Y61876372D02*
X26162143Y61923991D01*
X26162143Y61923991D02*
X26066905Y61971610D01*
X26066905Y61971610D02*
X26019286Y62019229D01*
X26019286Y62019229D02*
X25971667Y62114467D01*
X25971667Y62114467D02*
X25971667Y62209705D01*
X25971667Y62209705D02*
X26019286Y62304943D01*
X26019286Y62304943D02*
X26066905Y62352562D01*
X26066905Y62352562D02*
X26162143Y62400181D01*
X26162143Y62400181D02*
X26400238Y62400181D01*
X26400238Y62400181D02*
X26543095Y62352562D01*
X26876429Y62400181D02*
X27114524Y61400181D01*
X27114524Y61400181D02*
X27305000Y62114467D01*
X27305000Y62114467D02*
X27495476Y61400181D01*
X27495476Y61400181D02*
X27733572Y62400181D01*
X28543095Y62400181D02*
X28352619Y62400181D01*
X28352619Y62400181D02*
X28257381Y62352562D01*
X28257381Y62352562D02*
X28209762Y62304943D01*
X28209762Y62304943D02*
X28114524Y62162086D01*
X28114524Y62162086D02*
X28066905Y61971610D01*
X28066905Y61971610D02*
X28066905Y61590658D01*
X28066905Y61590658D02*
X28114524Y61495420D01*
X28114524Y61495420D02*
X28162143Y61447800D01*
X28162143Y61447800D02*
X28257381Y61400181D01*
X28257381Y61400181D02*
X28447857Y61400181D01*
X28447857Y61400181D02*
X28543095Y61447800D01*
X28543095Y61447800D02*
X28590714Y61495420D01*
X28590714Y61495420D02*
X28638333Y61590658D01*
X28638333Y61590658D02*
X28638333Y61828753D01*
X28638333Y61828753D02*
X28590714Y61923991D01*
X28590714Y61923991D02*
X28543095Y61971610D01*
X28543095Y61971610D02*
X28447857Y62019229D01*
X28447857Y62019229D02*
X28257381Y62019229D01*
X28257381Y62019229D02*
X28162143Y61971610D01*
X28162143Y61971610D02*
X28114524Y61923991D01*
X28114524Y61923991D02*
X28066905Y61828753D01*
X65873333Y87810181D02*
X65540000Y88286372D01*
X65301905Y87810181D02*
X65301905Y88810181D01*
X65301905Y88810181D02*
X65682857Y88810181D01*
X65682857Y88810181D02*
X65778095Y88762562D01*
X65778095Y88762562D02*
X65825714Y88714943D01*
X65825714Y88714943D02*
X65873333Y88619705D01*
X65873333Y88619705D02*
X65873333Y88476848D01*
X65873333Y88476848D02*
X65825714Y88381610D01*
X65825714Y88381610D02*
X65778095Y88333991D01*
X65778095Y88333991D02*
X65682857Y88286372D01*
X65682857Y88286372D02*
X65301905Y88286372D01*
X66778095Y88810181D02*
X66301905Y88810181D01*
X66301905Y88810181D02*
X66254286Y88333991D01*
X66254286Y88333991D02*
X66301905Y88381610D01*
X66301905Y88381610D02*
X66397143Y88429229D01*
X66397143Y88429229D02*
X66635238Y88429229D01*
X66635238Y88429229D02*
X66730476Y88381610D01*
X66730476Y88381610D02*
X66778095Y88333991D01*
X66778095Y88333991D02*
X66825714Y88238753D01*
X66825714Y88238753D02*
X66825714Y88000658D01*
X66825714Y88000658D02*
X66778095Y87905420D01*
X66778095Y87905420D02*
X66730476Y87857800D01*
X66730476Y87857800D02*
X66635238Y87810181D01*
X66635238Y87810181D02*
X66397143Y87810181D01*
X66397143Y87810181D02*
X66301905Y87857800D01*
X66301905Y87857800D02*
X66254286Y87905420D01*
X64643095Y51135181D02*
X64643095Y50325658D01*
X64643095Y50325658D02*
X64690714Y50230420D01*
X64690714Y50230420D02*
X64738333Y50182800D01*
X64738333Y50182800D02*
X64833571Y50135181D01*
X64833571Y50135181D02*
X65024047Y50135181D01*
X65024047Y50135181D02*
X65119285Y50182800D01*
X65119285Y50182800D02*
X65166904Y50230420D01*
X65166904Y50230420D02*
X65214523Y50325658D01*
X65214523Y50325658D02*
X65214523Y51135181D01*
X66119285Y50801848D02*
X66119285Y50135181D01*
X65881190Y51182800D02*
X65643095Y50468515D01*
X65643095Y50468515D02*
X66262142Y50468515D01*
X5999819Y42378334D02*
X5523628Y42045001D01*
X5999819Y41806906D02*
X4999819Y41806906D01*
X4999819Y41806906D02*
X4999819Y42187858D01*
X4999819Y42187858D02*
X5047438Y42283096D01*
X5047438Y42283096D02*
X5095057Y42330715D01*
X5095057Y42330715D02*
X5190295Y42378334D01*
X5190295Y42378334D02*
X5333152Y42378334D01*
X5333152Y42378334D02*
X5428390Y42330715D01*
X5428390Y42330715D02*
X5476009Y42283096D01*
X5476009Y42283096D02*
X5523628Y42187858D01*
X5523628Y42187858D02*
X5523628Y41806906D01*
X4999819Y42711668D02*
X4999819Y43330715D01*
X4999819Y43330715D02*
X5380771Y42997382D01*
X5380771Y42997382D02*
X5380771Y43140239D01*
X5380771Y43140239D02*
X5428390Y43235477D01*
X5428390Y43235477D02*
X5476009Y43283096D01*
X5476009Y43283096D02*
X5571247Y43330715D01*
X5571247Y43330715D02*
X5809342Y43330715D01*
X5809342Y43330715D02*
X5904580Y43283096D01*
X5904580Y43283096D02*
X5952200Y43235477D01*
X5952200Y43235477D02*
X5999819Y43140239D01*
X5999819Y43140239D02*
X5999819Y42854525D01*
X5999819Y42854525D02*
X5952200Y42759287D01*
X5952200Y42759287D02*
X5904580Y42711668D01*
X929819Y80528096D02*
X1739342Y80528096D01*
X1739342Y80528096D02*
X1834580Y80575715D01*
X1834580Y80575715D02*
X1882200Y80623334D01*
X1882200Y80623334D02*
X1929819Y80718572D01*
X1929819Y80718572D02*
X1929819Y80909048D01*
X1929819Y80909048D02*
X1882200Y81004286D01*
X1882200Y81004286D02*
X1834580Y81051905D01*
X1834580Y81051905D02*
X1739342Y81099524D01*
X1739342Y81099524D02*
X929819Y81099524D01*
X929819Y82051905D02*
X929819Y81575715D01*
X929819Y81575715D02*
X1406009Y81528096D01*
X1406009Y81528096D02*
X1358390Y81575715D01*
X1358390Y81575715D02*
X1310771Y81670953D01*
X1310771Y81670953D02*
X1310771Y81909048D01*
X1310771Y81909048D02*
X1358390Y82004286D01*
X1358390Y82004286D02*
X1406009Y82051905D01*
X1406009Y82051905D02*
X1501247Y82099524D01*
X1501247Y82099524D02*
X1739342Y82099524D01*
X1739342Y82099524D02*
X1834580Y82051905D01*
X1834580Y82051905D02*
X1882200Y82004286D01*
X1882200Y82004286D02*
X1929819Y81909048D01*
X1929819Y81909048D02*
X1929819Y81670953D01*
X1929819Y81670953D02*
X1882200Y81575715D01*
X1882200Y81575715D02*
X1834580Y81528096D01*
X61100952Y66220181D02*
X60624762Y66220181D01*
X60624762Y66220181D02*
X60624762Y67220181D01*
X61434286Y66743991D02*
X61767619Y66743991D01*
X61910476Y66220181D02*
X61434286Y66220181D01*
X61434286Y66220181D02*
X61434286Y67220181D01*
X61434286Y67220181D02*
X61910476Y67220181D01*
X62339048Y66220181D02*
X62339048Y67220181D01*
X62339048Y67220181D02*
X62577143Y67220181D01*
X62577143Y67220181D02*
X62720000Y67172562D01*
X62720000Y67172562D02*
X62815238Y67077324D01*
X62815238Y67077324D02*
X62862857Y66982086D01*
X62862857Y66982086D02*
X62910476Y66791610D01*
X62910476Y66791610D02*
X62910476Y66648753D01*
X62910476Y66648753D02*
X62862857Y66458277D01*
X62862857Y66458277D02*
X62815238Y66363039D01*
X62815238Y66363039D02*
X62720000Y66267800D01*
X62720000Y66267800D02*
X62577143Y66220181D01*
X62577143Y66220181D02*
X62339048Y66220181D01*
X63862857Y66220181D02*
X63291429Y66220181D01*
X63577143Y66220181D02*
X63577143Y67220181D01*
X63577143Y67220181D02*
X63481905Y67077324D01*
X63481905Y67077324D02*
X63386667Y66982086D01*
X63386667Y66982086D02*
X63291429Y66934467D01*
X6709580Y56983334D02*
X6757200Y56935715D01*
X6757200Y56935715D02*
X6804819Y56792858D01*
X6804819Y56792858D02*
X6804819Y56697620D01*
X6804819Y56697620D02*
X6757200Y56554763D01*
X6757200Y56554763D02*
X6661961Y56459525D01*
X6661961Y56459525D02*
X6566723Y56411906D01*
X6566723Y56411906D02*
X6376247Y56364287D01*
X6376247Y56364287D02*
X6233390Y56364287D01*
X6233390Y56364287D02*
X6042914Y56411906D01*
X6042914Y56411906D02*
X5947676Y56459525D01*
X5947676Y56459525D02*
X5852438Y56554763D01*
X5852438Y56554763D02*
X5804819Y56697620D01*
X5804819Y56697620D02*
X5804819Y56792858D01*
X5804819Y56792858D02*
X5852438Y56935715D01*
X5852438Y56935715D02*
X5900057Y56983334D01*
X5900057Y57364287D02*
X5852438Y57411906D01*
X5852438Y57411906D02*
X5804819Y57507144D01*
X5804819Y57507144D02*
X5804819Y57745239D01*
X5804819Y57745239D02*
X5852438Y57840477D01*
X5852438Y57840477D02*
X5900057Y57888096D01*
X5900057Y57888096D02*
X5995295Y57935715D01*
X5995295Y57935715D02*
X6090533Y57935715D01*
X6090533Y57935715D02*
X6233390Y57888096D01*
X6233390Y57888096D02*
X6804819Y57316668D01*
X6804819Y57316668D02*
X6804819Y57935715D01*
X40155952Y66220181D02*
X39679762Y66220181D01*
X39679762Y66220181D02*
X39679762Y67220181D01*
X40489286Y66743991D02*
X40822619Y66743991D01*
X40965476Y66220181D02*
X40489286Y66220181D01*
X40489286Y66220181D02*
X40489286Y67220181D01*
X40489286Y67220181D02*
X40965476Y67220181D01*
X41394048Y66220181D02*
X41394048Y67220181D01*
X41394048Y67220181D02*
X41632143Y67220181D01*
X41632143Y67220181D02*
X41775000Y67172562D01*
X41775000Y67172562D02*
X41870238Y67077324D01*
X41870238Y67077324D02*
X41917857Y66982086D01*
X41917857Y66982086D02*
X41965476Y66791610D01*
X41965476Y66791610D02*
X41965476Y66648753D01*
X41965476Y66648753D02*
X41917857Y66458277D01*
X41917857Y66458277D02*
X41870238Y66363039D01*
X41870238Y66363039D02*
X41775000Y66267800D01*
X41775000Y66267800D02*
X41632143Y66220181D01*
X41632143Y66220181D02*
X41394048Y66220181D01*
X42822619Y66886848D02*
X42822619Y66220181D01*
X42584524Y67267800D02*
X42346429Y66553515D01*
X42346429Y66553515D02*
X42965476Y66553515D01*
X4899819Y11263334D02*
X4423628Y10930001D01*
X4899819Y10691906D02*
X3899819Y10691906D01*
X3899819Y10691906D02*
X3899819Y11072858D01*
X3899819Y11072858D02*
X3947438Y11168096D01*
X3947438Y11168096D02*
X3995057Y11215715D01*
X3995057Y11215715D02*
X4090295Y11263334D01*
X4090295Y11263334D02*
X4233152Y11263334D01*
X4233152Y11263334D02*
X4328390Y11215715D01*
X4328390Y11215715D02*
X4376009Y11168096D01*
X4376009Y11168096D02*
X4423628Y11072858D01*
X4423628Y11072858D02*
X4423628Y10691906D01*
X3995057Y11644287D02*
X3947438Y11691906D01*
X3947438Y11691906D02*
X3899819Y11787144D01*
X3899819Y11787144D02*
X3899819Y12025239D01*
X3899819Y12025239D02*
X3947438Y12120477D01*
X3947438Y12120477D02*
X3995057Y12168096D01*
X3995057Y12168096D02*
X4090295Y12215715D01*
X4090295Y12215715D02*
X4185533Y12215715D01*
X4185533Y12215715D02*
X4328390Y12168096D01*
X4328390Y12168096D02*
X4899819Y11596668D01*
X4899819Y11596668D02*
X4899819Y12215715D01*
X12001667Y61447800D02*
X12144524Y61400181D01*
X12144524Y61400181D02*
X12382619Y61400181D01*
X12382619Y61400181D02*
X12477857Y61447800D01*
X12477857Y61447800D02*
X12525476Y61495420D01*
X12525476Y61495420D02*
X12573095Y61590658D01*
X12573095Y61590658D02*
X12573095Y61685896D01*
X12573095Y61685896D02*
X12525476Y61781134D01*
X12525476Y61781134D02*
X12477857Y61828753D01*
X12477857Y61828753D02*
X12382619Y61876372D01*
X12382619Y61876372D02*
X12192143Y61923991D01*
X12192143Y61923991D02*
X12096905Y61971610D01*
X12096905Y61971610D02*
X12049286Y62019229D01*
X12049286Y62019229D02*
X12001667Y62114467D01*
X12001667Y62114467D02*
X12001667Y62209705D01*
X12001667Y62209705D02*
X12049286Y62304943D01*
X12049286Y62304943D02*
X12096905Y62352562D01*
X12096905Y62352562D02*
X12192143Y62400181D01*
X12192143Y62400181D02*
X12430238Y62400181D01*
X12430238Y62400181D02*
X12573095Y62352562D01*
X12906429Y62400181D02*
X13144524Y61400181D01*
X13144524Y61400181D02*
X13335000Y62114467D01*
X13335000Y62114467D02*
X13525476Y61400181D01*
X13525476Y61400181D02*
X13763572Y62400181D01*
X14287381Y61971610D02*
X14192143Y62019229D01*
X14192143Y62019229D02*
X14144524Y62066848D01*
X14144524Y62066848D02*
X14096905Y62162086D01*
X14096905Y62162086D02*
X14096905Y62209705D01*
X14096905Y62209705D02*
X14144524Y62304943D01*
X14144524Y62304943D02*
X14192143Y62352562D01*
X14192143Y62352562D02*
X14287381Y62400181D01*
X14287381Y62400181D02*
X14477857Y62400181D01*
X14477857Y62400181D02*
X14573095Y62352562D01*
X14573095Y62352562D02*
X14620714Y62304943D01*
X14620714Y62304943D02*
X14668333Y62209705D01*
X14668333Y62209705D02*
X14668333Y62162086D01*
X14668333Y62162086D02*
X14620714Y62066848D01*
X14620714Y62066848D02*
X14573095Y62019229D01*
X14573095Y62019229D02*
X14477857Y61971610D01*
X14477857Y61971610D02*
X14287381Y61971610D01*
X14287381Y61971610D02*
X14192143Y61923991D01*
X14192143Y61923991D02*
X14144524Y61876372D01*
X14144524Y61876372D02*
X14096905Y61781134D01*
X14096905Y61781134D02*
X14096905Y61590658D01*
X14096905Y61590658D02*
X14144524Y61495420D01*
X14144524Y61495420D02*
X14192143Y61447800D01*
X14192143Y61447800D02*
X14287381Y61400181D01*
X14287381Y61400181D02*
X14477857Y61400181D01*
X14477857Y61400181D02*
X14573095Y61447800D01*
X14573095Y61447800D02*
X14620714Y61495420D01*
X14620714Y61495420D02*
X14668333Y61590658D01*
X14668333Y61590658D02*
X14668333Y61781134D01*
X14668333Y61781134D02*
X14620714Y61876372D01*
X14620714Y61876372D02*
X14573095Y61923991D01*
X14573095Y61923991D02*
X14477857Y61971610D01*
X8723333Y51615181D02*
X8390000Y52091372D01*
X8151905Y51615181D02*
X8151905Y52615181D01*
X8151905Y52615181D02*
X8532857Y52615181D01*
X8532857Y52615181D02*
X8628095Y52567562D01*
X8628095Y52567562D02*
X8675714Y52519943D01*
X8675714Y52519943D02*
X8723333Y52424705D01*
X8723333Y52424705D02*
X8723333Y52281848D01*
X8723333Y52281848D02*
X8675714Y52186610D01*
X8675714Y52186610D02*
X8628095Y52138991D01*
X8628095Y52138991D02*
X8532857Y52091372D01*
X8532857Y52091372D02*
X8151905Y52091372D01*
X9056667Y52615181D02*
X9723333Y52615181D01*
X9723333Y52615181D02*
X9294762Y51615181D01*
X19195952Y66220181D02*
X18719762Y66220181D01*
X18719762Y66220181D02*
X18719762Y67220181D01*
X19529286Y66743991D02*
X19862619Y66743991D01*
X20005476Y66220181D02*
X19529286Y66220181D01*
X19529286Y66220181D02*
X19529286Y67220181D01*
X19529286Y67220181D02*
X20005476Y67220181D01*
X20434048Y66220181D02*
X20434048Y67220181D01*
X20434048Y67220181D02*
X20672143Y67220181D01*
X20672143Y67220181D02*
X20815000Y67172562D01*
X20815000Y67172562D02*
X20910238Y67077324D01*
X20910238Y67077324D02*
X20957857Y66982086D01*
X20957857Y66982086D02*
X21005476Y66791610D01*
X21005476Y66791610D02*
X21005476Y66648753D01*
X21005476Y66648753D02*
X20957857Y66458277D01*
X20957857Y66458277D02*
X20910238Y66363039D01*
X20910238Y66363039D02*
X20815000Y66267800D01*
X20815000Y66267800D02*
X20672143Y66220181D01*
X20672143Y66220181D02*
X20434048Y66220181D01*
X21338810Y67220181D02*
X22005476Y67220181D01*
X22005476Y67220181D02*
X21576905Y66220181D01*
X70769819Y57618334D02*
X70293628Y57285001D01*
X70769819Y57046906D02*
X69769819Y57046906D01*
X69769819Y57046906D02*
X69769819Y57427858D01*
X69769819Y57427858D02*
X69817438Y57523096D01*
X69817438Y57523096D02*
X69865057Y57570715D01*
X69865057Y57570715D02*
X69960295Y57618334D01*
X69960295Y57618334D02*
X70103152Y57618334D01*
X70103152Y57618334D02*
X70198390Y57570715D01*
X70198390Y57570715D02*
X70246009Y57523096D01*
X70246009Y57523096D02*
X70293628Y57427858D01*
X70293628Y57427858D02*
X70293628Y57046906D01*
X70769819Y58570715D02*
X70769819Y57999287D01*
X70769819Y58285001D02*
X69769819Y58285001D01*
X69769819Y58285001D02*
X69912676Y58189763D01*
X69912676Y58189763D02*
X70007914Y58094525D01*
X70007914Y58094525D02*
X70055533Y57999287D01*
X21889819Y80518096D02*
X22699342Y80518096D01*
X22699342Y80518096D02*
X22794580Y80565715D01*
X22794580Y80565715D02*
X22842200Y80613334D01*
X22842200Y80613334D02*
X22889819Y80708572D01*
X22889819Y80708572D02*
X22889819Y80899048D01*
X22889819Y80899048D02*
X22842200Y80994286D01*
X22842200Y80994286D02*
X22794580Y81041905D01*
X22794580Y81041905D02*
X22699342Y81089524D01*
X22699342Y81089524D02*
X21889819Y81089524D01*
X21889819Y81994286D02*
X21889819Y81803810D01*
X21889819Y81803810D02*
X21937438Y81708572D01*
X21937438Y81708572D02*
X21985057Y81660953D01*
X21985057Y81660953D02*
X22127914Y81565715D01*
X22127914Y81565715D02*
X22318390Y81518096D01*
X22318390Y81518096D02*
X22699342Y81518096D01*
X22699342Y81518096D02*
X22794580Y81565715D01*
X22794580Y81565715D02*
X22842200Y81613334D01*
X22842200Y81613334D02*
X22889819Y81708572D01*
X22889819Y81708572D02*
X22889819Y81899048D01*
X22889819Y81899048D02*
X22842200Y81994286D01*
X22842200Y81994286D02*
X22794580Y82041905D01*
X22794580Y82041905D02*
X22699342Y82089524D01*
X22699342Y82089524D02*
X22461247Y82089524D01*
X22461247Y82089524D02*
X22366009Y82041905D01*
X22366009Y82041905D02*
X22318390Y81994286D01*
X22318390Y81994286D02*
X22270771Y81899048D01*
X22270771Y81899048D02*
X22270771Y81708572D01*
X22270771Y81708572D02*
X22318390Y81613334D01*
X22318390Y81613334D02*
X22366009Y81565715D01*
X22366009Y81565715D02*
X22461247Y81518096D01*
X6504819Y17930953D02*
X6504819Y17454763D01*
X6504819Y17454763D02*
X5504819Y17454763D01*
X5981009Y18264287D02*
X5981009Y18597620D01*
X6504819Y18740477D02*
X6504819Y18264287D01*
X6504819Y18264287D02*
X5504819Y18264287D01*
X5504819Y18264287D02*
X5504819Y18740477D01*
X6504819Y19169049D02*
X5504819Y19169049D01*
X5504819Y19169049D02*
X5504819Y19407144D01*
X5504819Y19407144D02*
X5552438Y19550001D01*
X5552438Y19550001D02*
X5647676Y19645239D01*
X5647676Y19645239D02*
X5742914Y19692858D01*
X5742914Y19692858D02*
X5933390Y19740477D01*
X5933390Y19740477D02*
X6076247Y19740477D01*
X6076247Y19740477D02*
X6266723Y19692858D01*
X6266723Y19692858D02*
X6361961Y19645239D01*
X6361961Y19645239D02*
X6457200Y19550001D01*
X6457200Y19550001D02*
X6504819Y19407144D01*
X6504819Y19407144D02*
X6504819Y19169049D01*
X6504819Y20216668D02*
X6504819Y20407144D01*
X6504819Y20407144D02*
X6457200Y20502382D01*
X6457200Y20502382D02*
X6409580Y20550001D01*
X6409580Y20550001D02*
X6266723Y20645239D01*
X6266723Y20645239D02*
X6076247Y20692858D01*
X6076247Y20692858D02*
X5695295Y20692858D01*
X5695295Y20692858D02*
X5600057Y20645239D01*
X5600057Y20645239D02*
X5552438Y20597620D01*
X5552438Y20597620D02*
X5504819Y20502382D01*
X5504819Y20502382D02*
X5504819Y20311906D01*
X5504819Y20311906D02*
X5552438Y20216668D01*
X5552438Y20216668D02*
X5600057Y20169049D01*
X5600057Y20169049D02*
X5695295Y20121430D01*
X5695295Y20121430D02*
X5933390Y20121430D01*
X5933390Y20121430D02*
X6028628Y20169049D01*
X6028628Y20169049D02*
X6076247Y20216668D01*
X6076247Y20216668D02*
X6123866Y20311906D01*
X6123866Y20311906D02*
X6123866Y20502382D01*
X6123866Y20502382D02*
X6076247Y20597620D01*
X6076247Y20597620D02*
X6028628Y20645239D01*
X6028628Y20645239D02*
X5933390Y20692858D01*
X39941667Y61447800D02*
X40084524Y61400181D01*
X40084524Y61400181D02*
X40322619Y61400181D01*
X40322619Y61400181D02*
X40417857Y61447800D01*
X40417857Y61447800D02*
X40465476Y61495420D01*
X40465476Y61495420D02*
X40513095Y61590658D01*
X40513095Y61590658D02*
X40513095Y61685896D01*
X40513095Y61685896D02*
X40465476Y61781134D01*
X40465476Y61781134D02*
X40417857Y61828753D01*
X40417857Y61828753D02*
X40322619Y61876372D01*
X40322619Y61876372D02*
X40132143Y61923991D01*
X40132143Y61923991D02*
X40036905Y61971610D01*
X40036905Y61971610D02*
X39989286Y62019229D01*
X39989286Y62019229D02*
X39941667Y62114467D01*
X39941667Y62114467D02*
X39941667Y62209705D01*
X39941667Y62209705D02*
X39989286Y62304943D01*
X39989286Y62304943D02*
X40036905Y62352562D01*
X40036905Y62352562D02*
X40132143Y62400181D01*
X40132143Y62400181D02*
X40370238Y62400181D01*
X40370238Y62400181D02*
X40513095Y62352562D01*
X40846429Y62400181D02*
X41084524Y61400181D01*
X41084524Y61400181D02*
X41275000Y62114467D01*
X41275000Y62114467D02*
X41465476Y61400181D01*
X41465476Y61400181D02*
X41703572Y62400181D01*
X42513095Y62066848D02*
X42513095Y61400181D01*
X42275000Y62447800D02*
X42036905Y61733515D01*
X42036905Y61733515D02*
X42655952Y61733515D01*
X58399166Y4355181D02*
X58399166Y3640896D01*
X58399166Y3640896D02*
X58351547Y3498039D01*
X58351547Y3498039D02*
X58256309Y3402800D01*
X58256309Y3402800D02*
X58113452Y3355181D01*
X58113452Y3355181D02*
X58018214Y3355181D01*
X58780119Y4355181D02*
X59399166Y4355181D01*
X59399166Y4355181D02*
X59065833Y3974229D01*
X59065833Y3974229D02*
X59208690Y3974229D01*
X59208690Y3974229D02*
X59303928Y3926610D01*
X59303928Y3926610D02*
X59351547Y3878991D01*
X59351547Y3878991D02*
X59399166Y3783753D01*
X59399166Y3783753D02*
X59399166Y3545658D01*
X59399166Y3545658D02*
X59351547Y3450420D01*
X59351547Y3450420D02*
X59303928Y3402800D01*
X59303928Y3402800D02*
X59208690Y3355181D01*
X59208690Y3355181D02*
X58922976Y3355181D01*
X58922976Y3355181D02*
X58827738Y3402800D01*
X58827738Y3402800D02*
X58780119Y3450420D01*
X60269523Y49710181D02*
X59936190Y50186372D01*
X59698095Y49710181D02*
X59698095Y50710181D01*
X59698095Y50710181D02*
X60079047Y50710181D01*
X60079047Y50710181D02*
X60174285Y50662562D01*
X60174285Y50662562D02*
X60221904Y50614943D01*
X60221904Y50614943D02*
X60269523Y50519705D01*
X60269523Y50519705D02*
X60269523Y50376848D01*
X60269523Y50376848D02*
X60221904Y50281610D01*
X60221904Y50281610D02*
X60174285Y50233991D01*
X60174285Y50233991D02*
X60079047Y50186372D01*
X60079047Y50186372D02*
X59698095Y50186372D01*
X60698095Y49710181D02*
X60698095Y50710181D01*
X60698095Y50710181D02*
X61269523Y49710181D01*
X61269523Y49710181D02*
X61269523Y50710181D01*
X61698095Y50614943D02*
X61745714Y50662562D01*
X61745714Y50662562D02*
X61840952Y50710181D01*
X61840952Y50710181D02*
X62079047Y50710181D01*
X62079047Y50710181D02*
X62174285Y50662562D01*
X62174285Y50662562D02*
X62221904Y50614943D01*
X62221904Y50614943D02*
X62269523Y50519705D01*
X62269523Y50519705D02*
X62269523Y50424467D01*
X62269523Y50424467D02*
X62221904Y50281610D01*
X62221904Y50281610D02*
X61650476Y49710181D01*
X61650476Y49710181D02*
X62269523Y49710181D01*
X1467200Y25745477D02*
X1514819Y25888334D01*
X1514819Y25888334D02*
X1514819Y26126429D01*
X1514819Y26126429D02*
X1467200Y26221667D01*
X1467200Y26221667D02*
X1419580Y26269286D01*
X1419580Y26269286D02*
X1324342Y26316905D01*
X1324342Y26316905D02*
X1229104Y26316905D01*
X1229104Y26316905D02*
X1133866Y26269286D01*
X1133866Y26269286D02*
X1086247Y26221667D01*
X1086247Y26221667D02*
X1038628Y26126429D01*
X1038628Y26126429D02*
X991009Y25935953D01*
X991009Y25935953D02*
X943390Y25840715D01*
X943390Y25840715D02*
X895771Y25793096D01*
X895771Y25793096D02*
X800533Y25745477D01*
X800533Y25745477D02*
X705295Y25745477D01*
X705295Y25745477D02*
X610057Y25793096D01*
X610057Y25793096D02*
X562438Y25840715D01*
X562438Y25840715D02*
X514819Y25935953D01*
X514819Y25935953D02*
X514819Y26174048D01*
X514819Y26174048D02*
X562438Y26316905D01*
X514819Y26650239D02*
X1514819Y26888334D01*
X1514819Y26888334D02*
X800533Y27078810D01*
X800533Y27078810D02*
X1514819Y27269286D01*
X1514819Y27269286D02*
X514819Y27507381D01*
X1514819Y28412143D02*
X1514819Y27840715D01*
X1514819Y28126429D02*
X514819Y28126429D01*
X514819Y28126429D02*
X657676Y28031191D01*
X657676Y28031191D02*
X752914Y27935953D01*
X752914Y27935953D02*
X800533Y27840715D01*
X1514819Y29364524D02*
X1514819Y28793096D01*
X1514819Y29078810D02*
X514819Y29078810D01*
X514819Y29078810D02*
X657676Y28983572D01*
X657676Y28983572D02*
X752914Y28888334D01*
X752914Y28888334D02*
X800533Y28793096D01*
X58627200Y79470477D02*
X58674819Y79613334D01*
X58674819Y79613334D02*
X58674819Y79851429D01*
X58674819Y79851429D02*
X58627200Y79946667D01*
X58627200Y79946667D02*
X58579580Y79994286D01*
X58579580Y79994286D02*
X58484342Y80041905D01*
X58484342Y80041905D02*
X58389104Y80041905D01*
X58389104Y80041905D02*
X58293866Y79994286D01*
X58293866Y79994286D02*
X58246247Y79946667D01*
X58246247Y79946667D02*
X58198628Y79851429D01*
X58198628Y79851429D02*
X58151009Y79660953D01*
X58151009Y79660953D02*
X58103390Y79565715D01*
X58103390Y79565715D02*
X58055771Y79518096D01*
X58055771Y79518096D02*
X57960533Y79470477D01*
X57960533Y79470477D02*
X57865295Y79470477D01*
X57865295Y79470477D02*
X57770057Y79518096D01*
X57770057Y79518096D02*
X57722438Y79565715D01*
X57722438Y79565715D02*
X57674819Y79660953D01*
X57674819Y79660953D02*
X57674819Y79899048D01*
X57674819Y79899048D02*
X57722438Y80041905D01*
X57674819Y80375239D02*
X58674819Y80613334D01*
X58674819Y80613334D02*
X57960533Y80803810D01*
X57960533Y80803810D02*
X58674819Y80994286D01*
X58674819Y80994286D02*
X57674819Y81232381D01*
X58674819Y82137143D02*
X58674819Y81565715D01*
X58674819Y81851429D02*
X57674819Y81851429D01*
X57674819Y81851429D02*
X57817676Y81756191D01*
X57817676Y81756191D02*
X57912914Y81660953D01*
X57912914Y81660953D02*
X57960533Y81565715D01*
X57674819Y82756191D02*
X57674819Y82851429D01*
X57674819Y82851429D02*
X57722438Y82946667D01*
X57722438Y82946667D02*
X57770057Y82994286D01*
X57770057Y82994286D02*
X57865295Y83041905D01*
X57865295Y83041905D02*
X58055771Y83089524D01*
X58055771Y83089524D02*
X58293866Y83089524D01*
X58293866Y83089524D02*
X58484342Y83041905D01*
X58484342Y83041905D02*
X58579580Y82994286D01*
X58579580Y82994286D02*
X58627200Y82946667D01*
X58627200Y82946667D02*
X58674819Y82851429D01*
X58674819Y82851429D02*
X58674819Y82756191D01*
X58674819Y82756191D02*
X58627200Y82660953D01*
X58627200Y82660953D02*
X58579580Y82613334D01*
X58579580Y82613334D02*
X58484342Y82565715D01*
X58484342Y82565715D02*
X58293866Y82518096D01*
X58293866Y82518096D02*
X58055771Y82518096D01*
X58055771Y82518096D02*
X57865295Y82565715D01*
X57865295Y82565715D02*
X57770057Y82613334D01*
X57770057Y82613334D02*
X57722438Y82660953D01*
X57722438Y82660953D02*
X57674819Y82756191D01*
X46926667Y61407800D02*
X47069524Y61360181D01*
X47069524Y61360181D02*
X47307619Y61360181D01*
X47307619Y61360181D02*
X47402857Y61407800D01*
X47402857Y61407800D02*
X47450476Y61455420D01*
X47450476Y61455420D02*
X47498095Y61550658D01*
X47498095Y61550658D02*
X47498095Y61645896D01*
X47498095Y61645896D02*
X47450476Y61741134D01*
X47450476Y61741134D02*
X47402857Y61788753D01*
X47402857Y61788753D02*
X47307619Y61836372D01*
X47307619Y61836372D02*
X47117143Y61883991D01*
X47117143Y61883991D02*
X47021905Y61931610D01*
X47021905Y61931610D02*
X46974286Y61979229D01*
X46974286Y61979229D02*
X46926667Y62074467D01*
X46926667Y62074467D02*
X46926667Y62169705D01*
X46926667Y62169705D02*
X46974286Y62264943D01*
X46974286Y62264943D02*
X47021905Y62312562D01*
X47021905Y62312562D02*
X47117143Y62360181D01*
X47117143Y62360181D02*
X47355238Y62360181D01*
X47355238Y62360181D02*
X47498095Y62312562D01*
X47831429Y62360181D02*
X48069524Y61360181D01*
X48069524Y61360181D02*
X48260000Y62074467D01*
X48260000Y62074467D02*
X48450476Y61360181D01*
X48450476Y61360181D02*
X48688572Y62360181D01*
X48974286Y62360181D02*
X49593333Y62360181D01*
X49593333Y62360181D02*
X49260000Y61979229D01*
X49260000Y61979229D02*
X49402857Y61979229D01*
X49402857Y61979229D02*
X49498095Y61931610D01*
X49498095Y61931610D02*
X49545714Y61883991D01*
X49545714Y61883991D02*
X49593333Y61788753D01*
X49593333Y61788753D02*
X49593333Y61550658D01*
X49593333Y61550658D02*
X49545714Y61455420D01*
X49545714Y61455420D02*
X49498095Y61407800D01*
X49498095Y61407800D02*
X49402857Y61360181D01*
X49402857Y61360181D02*
X49117143Y61360181D01*
X49117143Y61360181D02*
X49021905Y61407800D01*
X49021905Y61407800D02*
X48974286Y61455420D01*
X5379819Y11938096D02*
X6189342Y11938096D01*
X6189342Y11938096D02*
X6284580Y11985715D01*
X6284580Y11985715D02*
X6332200Y12033334D01*
X6332200Y12033334D02*
X6379819Y12128572D01*
X6379819Y12128572D02*
X6379819Y12319048D01*
X6379819Y12319048D02*
X6332200Y12414286D01*
X6332200Y12414286D02*
X6284580Y12461905D01*
X6284580Y12461905D02*
X6189342Y12509524D01*
X6189342Y12509524D02*
X5379819Y12509524D01*
X5475057Y12938096D02*
X5427438Y12985715D01*
X5427438Y12985715D02*
X5379819Y13080953D01*
X5379819Y13080953D02*
X5379819Y13319048D01*
X5379819Y13319048D02*
X5427438Y13414286D01*
X5427438Y13414286D02*
X5475057Y13461905D01*
X5475057Y13461905D02*
X5570295Y13509524D01*
X5570295Y13509524D02*
X5665533Y13509524D01*
X5665533Y13509524D02*
X5808390Y13461905D01*
X5808390Y13461905D02*
X6379819Y12890477D01*
X6379819Y12890477D02*
X6379819Y13509524D01*
X26185952Y66220181D02*
X25709762Y66220181D01*
X25709762Y66220181D02*
X25709762Y67220181D01*
X26519286Y66743991D02*
X26852619Y66743991D01*
X26995476Y66220181D02*
X26519286Y66220181D01*
X26519286Y66220181D02*
X26519286Y67220181D01*
X26519286Y67220181D02*
X26995476Y67220181D01*
X27424048Y66220181D02*
X27424048Y67220181D01*
X27424048Y67220181D02*
X27662143Y67220181D01*
X27662143Y67220181D02*
X27805000Y67172562D01*
X27805000Y67172562D02*
X27900238Y67077324D01*
X27900238Y67077324D02*
X27947857Y66982086D01*
X27947857Y66982086D02*
X27995476Y66791610D01*
X27995476Y66791610D02*
X27995476Y66648753D01*
X27995476Y66648753D02*
X27947857Y66458277D01*
X27947857Y66458277D02*
X27900238Y66363039D01*
X27900238Y66363039D02*
X27805000Y66267800D01*
X27805000Y66267800D02*
X27662143Y66220181D01*
X27662143Y66220181D02*
X27424048Y66220181D01*
X28852619Y67220181D02*
X28662143Y67220181D01*
X28662143Y67220181D02*
X28566905Y67172562D01*
X28566905Y67172562D02*
X28519286Y67124943D01*
X28519286Y67124943D02*
X28424048Y66982086D01*
X28424048Y66982086D02*
X28376429Y66791610D01*
X28376429Y66791610D02*
X28376429Y66410658D01*
X28376429Y66410658D02*
X28424048Y66315420D01*
X28424048Y66315420D02*
X28471667Y66267800D01*
X28471667Y66267800D02*
X28566905Y66220181D01*
X28566905Y66220181D02*
X28757381Y66220181D01*
X28757381Y66220181D02*
X28852619Y66267800D01*
X28852619Y66267800D02*
X28900238Y66315420D01*
X28900238Y66315420D02*
X28947857Y66410658D01*
X28947857Y66410658D02*
X28947857Y66648753D01*
X28947857Y66648753D02*
X28900238Y66743991D01*
X28900238Y66743991D02*
X28852619Y66791610D01*
X28852619Y66791610D02*
X28757381Y66839229D01*
X28757381Y66839229D02*
X28566905Y66839229D01*
X28566905Y66839229D02*
X28471667Y66791610D01*
X28471667Y66791610D02*
X28424048Y66743991D01*
X28424048Y66743991D02*
X28376429Y66648753D01*
X53911667Y61447800D02*
X54054524Y61400181D01*
X54054524Y61400181D02*
X54292619Y61400181D01*
X54292619Y61400181D02*
X54387857Y61447800D01*
X54387857Y61447800D02*
X54435476Y61495420D01*
X54435476Y61495420D02*
X54483095Y61590658D01*
X54483095Y61590658D02*
X54483095Y61685896D01*
X54483095Y61685896D02*
X54435476Y61781134D01*
X54435476Y61781134D02*
X54387857Y61828753D01*
X54387857Y61828753D02*
X54292619Y61876372D01*
X54292619Y61876372D02*
X54102143Y61923991D01*
X54102143Y61923991D02*
X54006905Y61971610D01*
X54006905Y61971610D02*
X53959286Y62019229D01*
X53959286Y62019229D02*
X53911667Y62114467D01*
X53911667Y62114467D02*
X53911667Y62209705D01*
X53911667Y62209705D02*
X53959286Y62304943D01*
X53959286Y62304943D02*
X54006905Y62352562D01*
X54006905Y62352562D02*
X54102143Y62400181D01*
X54102143Y62400181D02*
X54340238Y62400181D01*
X54340238Y62400181D02*
X54483095Y62352562D01*
X54816429Y62400181D02*
X55054524Y61400181D01*
X55054524Y61400181D02*
X55245000Y62114467D01*
X55245000Y62114467D02*
X55435476Y61400181D01*
X55435476Y61400181D02*
X55673572Y62400181D01*
X56006905Y62304943D02*
X56054524Y62352562D01*
X56054524Y62352562D02*
X56149762Y62400181D01*
X56149762Y62400181D02*
X56387857Y62400181D01*
X56387857Y62400181D02*
X56483095Y62352562D01*
X56483095Y62352562D02*
X56530714Y62304943D01*
X56530714Y62304943D02*
X56578333Y62209705D01*
X56578333Y62209705D02*
X56578333Y62114467D01*
X56578333Y62114467D02*
X56530714Y61971610D01*
X56530714Y61971610D02*
X55959286Y61400181D01*
X55959286Y61400181D02*
X56578333Y61400181D01*
X60896667Y61447800D02*
X61039524Y61400181D01*
X61039524Y61400181D02*
X61277619Y61400181D01*
X61277619Y61400181D02*
X61372857Y61447800D01*
X61372857Y61447800D02*
X61420476Y61495420D01*
X61420476Y61495420D02*
X61468095Y61590658D01*
X61468095Y61590658D02*
X61468095Y61685896D01*
X61468095Y61685896D02*
X61420476Y61781134D01*
X61420476Y61781134D02*
X61372857Y61828753D01*
X61372857Y61828753D02*
X61277619Y61876372D01*
X61277619Y61876372D02*
X61087143Y61923991D01*
X61087143Y61923991D02*
X60991905Y61971610D01*
X60991905Y61971610D02*
X60944286Y62019229D01*
X60944286Y62019229D02*
X60896667Y62114467D01*
X60896667Y62114467D02*
X60896667Y62209705D01*
X60896667Y62209705D02*
X60944286Y62304943D01*
X60944286Y62304943D02*
X60991905Y62352562D01*
X60991905Y62352562D02*
X61087143Y62400181D01*
X61087143Y62400181D02*
X61325238Y62400181D01*
X61325238Y62400181D02*
X61468095Y62352562D01*
X61801429Y62400181D02*
X62039524Y61400181D01*
X62039524Y61400181D02*
X62230000Y62114467D01*
X62230000Y62114467D02*
X62420476Y61400181D01*
X62420476Y61400181D02*
X62658572Y62400181D01*
X63563333Y61400181D02*
X62991905Y61400181D01*
X63277619Y61400181D02*
X63277619Y62400181D01*
X63277619Y62400181D02*
X63182381Y62257324D01*
X63182381Y62257324D02*
X63087143Y62162086D01*
X63087143Y62162086D02*
X62991905Y62114467D01*
X1389819Y52601906D02*
X389819Y52601906D01*
X389819Y52601906D02*
X389819Y52840001D01*
X389819Y52840001D02*
X437438Y52982858D01*
X437438Y52982858D02*
X532676Y53078096D01*
X532676Y53078096D02*
X627914Y53125715D01*
X627914Y53125715D02*
X818390Y53173334D01*
X818390Y53173334D02*
X961247Y53173334D01*
X961247Y53173334D02*
X1151723Y53125715D01*
X1151723Y53125715D02*
X1246961Y53078096D01*
X1246961Y53078096D02*
X1342200Y52982858D01*
X1342200Y52982858D02*
X1389819Y52840001D01*
X1389819Y52840001D02*
X1389819Y52601906D01*
X389819Y54078096D02*
X389819Y53601906D01*
X389819Y53601906D02*
X866009Y53554287D01*
X866009Y53554287D02*
X818390Y53601906D01*
X818390Y53601906D02*
X770771Y53697144D01*
X770771Y53697144D02*
X770771Y53935239D01*
X770771Y53935239D02*
X818390Y54030477D01*
X818390Y54030477D02*
X866009Y54078096D01*
X866009Y54078096D02*
X961247Y54125715D01*
X961247Y54125715D02*
X1199342Y54125715D01*
X1199342Y54125715D02*
X1294580Y54078096D01*
X1294580Y54078096D02*
X1342200Y54030477D01*
X1342200Y54030477D02*
X1389819Y53935239D01*
X1389819Y53935239D02*
X1389819Y53697144D01*
X1389819Y53697144D02*
X1342200Y53601906D01*
X1342200Y53601906D02*
X1294580Y53554287D01*
X1729819Y49268096D02*
X729819Y49268096D01*
X1729819Y49839524D02*
X1158390Y49410953D01*
X729819Y49839524D02*
X1301247Y49268096D01*
X7439819Y70381906D02*
X6439819Y70381906D01*
X6439819Y70381906D02*
X6439819Y70620001D01*
X6439819Y70620001D02*
X6487438Y70762858D01*
X6487438Y70762858D02*
X6582676Y70858096D01*
X6582676Y70858096D02*
X6677914Y70905715D01*
X6677914Y70905715D02*
X6868390Y70953334D01*
X6868390Y70953334D02*
X7011247Y70953334D01*
X7011247Y70953334D02*
X7201723Y70905715D01*
X7201723Y70905715D02*
X7296961Y70858096D01*
X7296961Y70858096D02*
X7392200Y70762858D01*
X7392200Y70762858D02*
X7439819Y70620001D01*
X7439819Y70620001D02*
X7439819Y70381906D01*
X6439819Y71286668D02*
X6439819Y71953334D01*
X6439819Y71953334D02*
X7439819Y71524763D01*
X7439819Y74668096D02*
X6439819Y74668096D01*
X7439819Y75239524D02*
X6868390Y74810953D01*
X6439819Y75239524D02*
X7011247Y74668096D01*
X5169819Y6223096D02*
X5979342Y6223096D01*
X5979342Y6223096D02*
X6074580Y6270715D01*
X6074580Y6270715D02*
X6122200Y6318334D01*
X6122200Y6318334D02*
X6169819Y6413572D01*
X6169819Y6413572D02*
X6169819Y6604048D01*
X6169819Y6604048D02*
X6122200Y6699286D01*
X6122200Y6699286D02*
X6074580Y6746905D01*
X6074580Y6746905D02*
X5979342Y6794524D01*
X5979342Y6794524D02*
X5169819Y6794524D01*
X5169819Y7175477D02*
X5169819Y7842143D01*
X5169819Y7842143D02*
X6169819Y7413572D01*
X12215952Y66220181D02*
X11739762Y66220181D01*
X11739762Y66220181D02*
X11739762Y67220181D01*
X12549286Y66743991D02*
X12882619Y66743991D01*
X13025476Y66220181D02*
X12549286Y66220181D01*
X12549286Y66220181D02*
X12549286Y67220181D01*
X12549286Y67220181D02*
X13025476Y67220181D01*
X13454048Y66220181D02*
X13454048Y67220181D01*
X13454048Y67220181D02*
X13692143Y67220181D01*
X13692143Y67220181D02*
X13835000Y67172562D01*
X13835000Y67172562D02*
X13930238Y67077324D01*
X13930238Y67077324D02*
X13977857Y66982086D01*
X13977857Y66982086D02*
X14025476Y66791610D01*
X14025476Y66791610D02*
X14025476Y66648753D01*
X14025476Y66648753D02*
X13977857Y66458277D01*
X13977857Y66458277D02*
X13930238Y66363039D01*
X13930238Y66363039D02*
X13835000Y66267800D01*
X13835000Y66267800D02*
X13692143Y66220181D01*
X13692143Y66220181D02*
X13454048Y66220181D01*
X14596905Y66791610D02*
X14501667Y66839229D01*
X14501667Y66839229D02*
X14454048Y66886848D01*
X14454048Y66886848D02*
X14406429Y66982086D01*
X14406429Y66982086D02*
X14406429Y67029705D01*
X14406429Y67029705D02*
X14454048Y67124943D01*
X14454048Y67124943D02*
X14501667Y67172562D01*
X14501667Y67172562D02*
X14596905Y67220181D01*
X14596905Y67220181D02*
X14787381Y67220181D01*
X14787381Y67220181D02*
X14882619Y67172562D01*
X14882619Y67172562D02*
X14930238Y67124943D01*
X14930238Y67124943D02*
X14977857Y67029705D01*
X14977857Y67029705D02*
X14977857Y66982086D01*
X14977857Y66982086D02*
X14930238Y66886848D01*
X14930238Y66886848D02*
X14882619Y66839229D01*
X14882619Y66839229D02*
X14787381Y66791610D01*
X14787381Y66791610D02*
X14596905Y66791610D01*
X14596905Y66791610D02*
X14501667Y66743991D01*
X14501667Y66743991D02*
X14454048Y66696372D01*
X14454048Y66696372D02*
X14406429Y66601134D01*
X14406429Y66601134D02*
X14406429Y66410658D01*
X14406429Y66410658D02*
X14454048Y66315420D01*
X14454048Y66315420D02*
X14501667Y66267800D01*
X14501667Y66267800D02*
X14596905Y66220181D01*
X14596905Y66220181D02*
X14787381Y66220181D01*
X14787381Y66220181D02*
X14882619Y66267800D01*
X14882619Y66267800D02*
X14930238Y66315420D01*
X14930238Y66315420D02*
X14977857Y66410658D01*
X14977857Y66410658D02*
X14977857Y66601134D01*
X14977857Y66601134D02*
X14930238Y66696372D01*
X14930238Y66696372D02*
X14882619Y66743991D01*
X14882619Y66743991D02*
X14787381Y66791610D01*
X60158333Y93675181D02*
X59825000Y94151372D01*
X59586905Y93675181D02*
X59586905Y94675181D01*
X59586905Y94675181D02*
X59967857Y94675181D01*
X59967857Y94675181D02*
X60063095Y94627562D01*
X60063095Y94627562D02*
X60110714Y94579943D01*
X60110714Y94579943D02*
X60158333Y94484705D01*
X60158333Y94484705D02*
X60158333Y94341848D01*
X60158333Y94341848D02*
X60110714Y94246610D01*
X60110714Y94246610D02*
X60063095Y94198991D01*
X60063095Y94198991D02*
X59967857Y94151372D01*
X59967857Y94151372D02*
X59586905Y94151372D01*
X61015476Y94675181D02*
X60825000Y94675181D01*
X60825000Y94675181D02*
X60729762Y94627562D01*
X60729762Y94627562D02*
X60682143Y94579943D01*
X60682143Y94579943D02*
X60586905Y94437086D01*
X60586905Y94437086D02*
X60539286Y94246610D01*
X60539286Y94246610D02*
X60539286Y93865658D01*
X60539286Y93865658D02*
X60586905Y93770420D01*
X60586905Y93770420D02*
X60634524Y93722800D01*
X60634524Y93722800D02*
X60729762Y93675181D01*
X60729762Y93675181D02*
X60920238Y93675181D01*
X60920238Y93675181D02*
X61015476Y93722800D01*
X61015476Y93722800D02*
X61063095Y93770420D01*
X61063095Y93770420D02*
X61110714Y93865658D01*
X61110714Y93865658D02*
X61110714Y94103753D01*
X61110714Y94103753D02*
X61063095Y94198991D01*
X61063095Y94198991D02*
X61015476Y94246610D01*
X61015476Y94246610D02*
X60920238Y94294229D01*
X60920238Y94294229D02*
X60729762Y94294229D01*
X60729762Y94294229D02*
X60634524Y94246610D01*
X60634524Y94246610D02*
X60586905Y94198991D01*
X60586905Y94198991D02*
X60539286Y94103753D01*
X1677200Y57245477D02*
X1724819Y57388334D01*
X1724819Y57388334D02*
X1724819Y57626429D01*
X1724819Y57626429D02*
X1677200Y57721667D01*
X1677200Y57721667D02*
X1629580Y57769286D01*
X1629580Y57769286D02*
X1534342Y57816905D01*
X1534342Y57816905D02*
X1439104Y57816905D01*
X1439104Y57816905D02*
X1343866Y57769286D01*
X1343866Y57769286D02*
X1296247Y57721667D01*
X1296247Y57721667D02*
X1248628Y57626429D01*
X1248628Y57626429D02*
X1201009Y57435953D01*
X1201009Y57435953D02*
X1153390Y57340715D01*
X1153390Y57340715D02*
X1105771Y57293096D01*
X1105771Y57293096D02*
X1010533Y57245477D01*
X1010533Y57245477D02*
X915295Y57245477D01*
X915295Y57245477D02*
X820057Y57293096D01*
X820057Y57293096D02*
X772438Y57340715D01*
X772438Y57340715D02*
X724819Y57435953D01*
X724819Y57435953D02*
X724819Y57674048D01*
X724819Y57674048D02*
X772438Y57816905D01*
X724819Y58150239D02*
X1724819Y58388334D01*
X1724819Y58388334D02*
X1010533Y58578810D01*
X1010533Y58578810D02*
X1724819Y58769286D01*
X1724819Y58769286D02*
X724819Y59007381D01*
X1724819Y59912143D02*
X1724819Y59340715D01*
X1724819Y59626429D02*
X724819Y59626429D01*
X724819Y59626429D02*
X867676Y59531191D01*
X867676Y59531191D02*
X962914Y59435953D01*
X962914Y59435953D02*
X1010533Y59340715D01*
X820057Y60293096D02*
X772438Y60340715D01*
X772438Y60340715D02*
X724819Y60435953D01*
X724819Y60435953D02*
X724819Y60674048D01*
X724819Y60674048D02*
X772438Y60769286D01*
X772438Y60769286D02*
X820057Y60816905D01*
X820057Y60816905D02*
X915295Y60864524D01*
X915295Y60864524D02*
X1010533Y60864524D01*
X1010533Y60864524D02*
X1153390Y60816905D01*
X1153390Y60816905D02*
X1724819Y60245477D01*
X1724819Y60245477D02*
X1724819Y60864524D01*
X56239580Y18248334D02*
X56287200Y18200715D01*
X56287200Y18200715D02*
X56334819Y18057858D01*
X56334819Y18057858D02*
X56334819Y17962620D01*
X56334819Y17962620D02*
X56287200Y17819763D01*
X56287200Y17819763D02*
X56191961Y17724525D01*
X56191961Y17724525D02*
X56096723Y17676906D01*
X56096723Y17676906D02*
X55906247Y17629287D01*
X55906247Y17629287D02*
X55763390Y17629287D01*
X55763390Y17629287D02*
X55572914Y17676906D01*
X55572914Y17676906D02*
X55477676Y17724525D01*
X55477676Y17724525D02*
X55382438Y17819763D01*
X55382438Y17819763D02*
X55334819Y17962620D01*
X55334819Y17962620D02*
X55334819Y18057858D01*
X55334819Y18057858D02*
X55382438Y18200715D01*
X55382438Y18200715D02*
X55430057Y18248334D01*
X56334819Y19200715D02*
X56334819Y18629287D01*
X56334819Y18915001D02*
X55334819Y18915001D01*
X55334819Y18915001D02*
X55477676Y18819763D01*
X55477676Y18819763D02*
X55572914Y18724525D01*
X55572914Y18724525D02*
X55620533Y18629287D01*
X32956667Y61447800D02*
X33099524Y61400181D01*
X33099524Y61400181D02*
X33337619Y61400181D01*
X33337619Y61400181D02*
X33432857Y61447800D01*
X33432857Y61447800D02*
X33480476Y61495420D01*
X33480476Y61495420D02*
X33528095Y61590658D01*
X33528095Y61590658D02*
X33528095Y61685896D01*
X33528095Y61685896D02*
X33480476Y61781134D01*
X33480476Y61781134D02*
X33432857Y61828753D01*
X33432857Y61828753D02*
X33337619Y61876372D01*
X33337619Y61876372D02*
X33147143Y61923991D01*
X33147143Y61923991D02*
X33051905Y61971610D01*
X33051905Y61971610D02*
X33004286Y62019229D01*
X33004286Y62019229D02*
X32956667Y62114467D01*
X32956667Y62114467D02*
X32956667Y62209705D01*
X32956667Y62209705D02*
X33004286Y62304943D01*
X33004286Y62304943D02*
X33051905Y62352562D01*
X33051905Y62352562D02*
X33147143Y62400181D01*
X33147143Y62400181D02*
X33385238Y62400181D01*
X33385238Y62400181D02*
X33528095Y62352562D01*
X33861429Y62400181D02*
X34099524Y61400181D01*
X34099524Y61400181D02*
X34290000Y62114467D01*
X34290000Y62114467D02*
X34480476Y61400181D01*
X34480476Y61400181D02*
X34718572Y62400181D01*
X35575714Y62400181D02*
X35099524Y62400181D01*
X35099524Y62400181D02*
X35051905Y61923991D01*
X35051905Y61923991D02*
X35099524Y61971610D01*
X35099524Y61971610D02*
X35194762Y62019229D01*
X35194762Y62019229D02*
X35432857Y62019229D01*
X35432857Y62019229D02*
X35528095Y61971610D01*
X35528095Y61971610D02*
X35575714Y61923991D01*
X35575714Y61923991D02*
X35623333Y61828753D01*
X35623333Y61828753D02*
X35623333Y61590658D01*
X35623333Y61590658D02*
X35575714Y61495420D01*
X35575714Y61495420D02*
X35528095Y61447800D01*
X35528095Y61447800D02*
X35432857Y61400181D01*
X35432857Y61400181D02*
X35194762Y61400181D01*
X35194762Y61400181D02*
X35099524Y61447800D01*
X35099524Y61447800D02*
X35051905Y61495420D01*
X51268333Y17960181D02*
X50935000Y18436372D01*
X50696905Y17960181D02*
X50696905Y18960181D01*
X50696905Y18960181D02*
X51077857Y18960181D01*
X51077857Y18960181D02*
X51173095Y18912562D01*
X51173095Y18912562D02*
X51220714Y18864943D01*
X51220714Y18864943D02*
X51268333Y18769705D01*
X51268333Y18769705D02*
X51268333Y18626848D01*
X51268333Y18626848D02*
X51220714Y18531610D01*
X51220714Y18531610D02*
X51173095Y18483991D01*
X51173095Y18483991D02*
X51077857Y18436372D01*
X51077857Y18436372D02*
X50696905Y18436372D01*
X52125476Y18626848D02*
X52125476Y17960181D01*
X51887381Y19007800D02*
X51649286Y18293515D01*
X51649286Y18293515D02*
X52268333Y18293515D01*
X38092142Y86540181D02*
X37758809Y87016372D01*
X37520714Y86540181D02*
X37520714Y87540181D01*
X37520714Y87540181D02*
X37901666Y87540181D01*
X37901666Y87540181D02*
X37996904Y87492562D01*
X37996904Y87492562D02*
X38044523Y87444943D01*
X38044523Y87444943D02*
X38092142Y87349705D01*
X38092142Y87349705D02*
X38092142Y87206848D01*
X38092142Y87206848D02*
X38044523Y87111610D01*
X38044523Y87111610D02*
X37996904Y87063991D01*
X37996904Y87063991D02*
X37901666Y87016372D01*
X37901666Y87016372D02*
X37520714Y87016372D01*
X39044523Y86540181D02*
X38473095Y86540181D01*
X38758809Y86540181D02*
X38758809Y87540181D01*
X38758809Y87540181D02*
X38663571Y87397324D01*
X38663571Y87397324D02*
X38568333Y87302086D01*
X38568333Y87302086D02*
X38473095Y87254467D01*
X39996904Y86540181D02*
X39425476Y86540181D01*
X39711190Y86540181D02*
X39711190Y87540181D01*
X39711190Y87540181D02*
X39615952Y87397324D01*
X39615952Y87397324D02*
X39520714Y87302086D01*
X39520714Y87302086D02*
X39425476Y87254467D01*
X36139523Y63680181D02*
X35806190Y64156372D01*
X35568095Y63680181D02*
X35568095Y64680181D01*
X35568095Y64680181D02*
X35949047Y64680181D01*
X35949047Y64680181D02*
X36044285Y64632562D01*
X36044285Y64632562D02*
X36091904Y64584943D01*
X36091904Y64584943D02*
X36139523Y64489705D01*
X36139523Y64489705D02*
X36139523Y64346848D01*
X36139523Y64346848D02*
X36091904Y64251610D01*
X36091904Y64251610D02*
X36044285Y64203991D01*
X36044285Y64203991D02*
X35949047Y64156372D01*
X35949047Y64156372D02*
X35568095Y64156372D01*
X36568095Y63680181D02*
X36568095Y64680181D01*
X36568095Y64680181D02*
X37139523Y63680181D01*
X37139523Y63680181D02*
X37139523Y64680181D01*
X38044285Y64346848D02*
X38044285Y63680181D01*
X37806190Y64727800D02*
X37568095Y64013515D01*
X37568095Y64013515D02*
X38187142Y64013515D01*
X51207200Y79946668D02*
X51254819Y80089525D01*
X51254819Y80089525D02*
X51254819Y80327620D01*
X51254819Y80327620D02*
X51207200Y80422858D01*
X51207200Y80422858D02*
X51159580Y80470477D01*
X51159580Y80470477D02*
X51064342Y80518096D01*
X51064342Y80518096D02*
X50969104Y80518096D01*
X50969104Y80518096D02*
X50873866Y80470477D01*
X50873866Y80470477D02*
X50826247Y80422858D01*
X50826247Y80422858D02*
X50778628Y80327620D01*
X50778628Y80327620D02*
X50731009Y80137144D01*
X50731009Y80137144D02*
X50683390Y80041906D01*
X50683390Y80041906D02*
X50635771Y79994287D01*
X50635771Y79994287D02*
X50540533Y79946668D01*
X50540533Y79946668D02*
X50445295Y79946668D01*
X50445295Y79946668D02*
X50350057Y79994287D01*
X50350057Y79994287D02*
X50302438Y80041906D01*
X50302438Y80041906D02*
X50254819Y80137144D01*
X50254819Y80137144D02*
X50254819Y80375239D01*
X50254819Y80375239D02*
X50302438Y80518096D01*
X50254819Y80851430D02*
X51254819Y81089525D01*
X51254819Y81089525D02*
X50540533Y81280001D01*
X50540533Y81280001D02*
X51254819Y81470477D01*
X51254819Y81470477D02*
X50254819Y81708572D01*
X51254819Y82137144D02*
X51254819Y82327620D01*
X51254819Y82327620D02*
X51207200Y82422858D01*
X51207200Y82422858D02*
X51159580Y82470477D01*
X51159580Y82470477D02*
X51016723Y82565715D01*
X51016723Y82565715D02*
X50826247Y82613334D01*
X50826247Y82613334D02*
X50445295Y82613334D01*
X50445295Y82613334D02*
X50350057Y82565715D01*
X50350057Y82565715D02*
X50302438Y82518096D01*
X50302438Y82518096D02*
X50254819Y82422858D01*
X50254819Y82422858D02*
X50254819Y82232382D01*
X50254819Y82232382D02*
X50302438Y82137144D01*
X50302438Y82137144D02*
X50350057Y82089525D01*
X50350057Y82089525D02*
X50445295Y82041906D01*
X50445295Y82041906D02*
X50683390Y82041906D01*
X50683390Y82041906D02*
X50778628Y82089525D01*
X50778628Y82089525D02*
X50826247Y82137144D01*
X50826247Y82137144D02*
X50873866Y82232382D01*
X50873866Y82232382D02*
X50873866Y82422858D01*
X50873866Y82422858D02*
X50826247Y82518096D01*
X50826247Y82518096D02*
X50778628Y82565715D01*
X50778628Y82565715D02*
X50683390Y82613334D01*
X70939819Y68413334D02*
X70463628Y68080001D01*
X70939819Y67841906D02*
X69939819Y67841906D01*
X69939819Y67841906D02*
X69939819Y68222858D01*
X69939819Y68222858D02*
X69987438Y68318096D01*
X69987438Y68318096D02*
X70035057Y68365715D01*
X70035057Y68365715D02*
X70130295Y68413334D01*
X70130295Y68413334D02*
X70273152Y68413334D01*
X70273152Y68413334D02*
X70368390Y68365715D01*
X70368390Y68365715D02*
X70416009Y68318096D01*
X70416009Y68318096D02*
X70463628Y68222858D01*
X70463628Y68222858D02*
X70463628Y67841906D01*
X70368390Y68984763D02*
X70320771Y68889525D01*
X70320771Y68889525D02*
X70273152Y68841906D01*
X70273152Y68841906D02*
X70177914Y68794287D01*
X70177914Y68794287D02*
X70130295Y68794287D01*
X70130295Y68794287D02*
X70035057Y68841906D01*
X70035057Y68841906D02*
X69987438Y68889525D01*
X69987438Y68889525D02*
X69939819Y68984763D01*
X69939819Y68984763D02*
X69939819Y69175239D01*
X69939819Y69175239D02*
X69987438Y69270477D01*
X69987438Y69270477D02*
X70035057Y69318096D01*
X70035057Y69318096D02*
X70130295Y69365715D01*
X70130295Y69365715D02*
X70177914Y69365715D01*
X70177914Y69365715D02*
X70273152Y69318096D01*
X70273152Y69318096D02*
X70320771Y69270477D01*
X70320771Y69270477D02*
X70368390Y69175239D01*
X70368390Y69175239D02*
X70368390Y68984763D01*
X70368390Y68984763D02*
X70416009Y68889525D01*
X70416009Y68889525D02*
X70463628Y68841906D01*
X70463628Y68841906D02*
X70558866Y68794287D01*
X70558866Y68794287D02*
X70749342Y68794287D01*
X70749342Y68794287D02*
X70844580Y68841906D01*
X70844580Y68841906D02*
X70892200Y68889525D01*
X70892200Y68889525D02*
X70939819Y68984763D01*
X70939819Y68984763D02*
X70939819Y69175239D01*
X70939819Y69175239D02*
X70892200Y69270477D01*
X70892200Y69270477D02*
X70844580Y69318096D01*
X70844580Y69318096D02*
X70749342Y69365715D01*
X70749342Y69365715D02*
X70558866Y69365715D01*
X70558866Y69365715D02*
X70463628Y69318096D01*
X70463628Y69318096D02*
X70416009Y69270477D01*
X70416009Y69270477D02*
X70368390Y69175239D01*
X64666905Y30025181D02*
X64666905Y31025181D01*
X64666905Y31025181D02*
X64905000Y31025181D01*
X64905000Y31025181D02*
X65047857Y30977562D01*
X65047857Y30977562D02*
X65143095Y30882324D01*
X65143095Y30882324D02*
X65190714Y30787086D01*
X65190714Y30787086D02*
X65238333Y30596610D01*
X65238333Y30596610D02*
X65238333Y30453753D01*
X65238333Y30453753D02*
X65190714Y30263277D01*
X65190714Y30263277D02*
X65143095Y30168039D01*
X65143095Y30168039D02*
X65047857Y30072800D01*
X65047857Y30072800D02*
X64905000Y30025181D01*
X64905000Y30025181D02*
X64666905Y30025181D01*
X66190714Y30025181D02*
X65619286Y30025181D01*
X65905000Y30025181D02*
X65905000Y31025181D01*
X65905000Y31025181D02*
X65809762Y30882324D01*
X65809762Y30882324D02*
X65714524Y30787086D01*
X65714524Y30787086D02*
X65619286Y30739467D01*
X61333095Y26215181D02*
X61333095Y27215181D01*
X61904523Y26215181D02*
X61475952Y26786610D01*
X61904523Y27215181D02*
X61333095Y26643753D01*
X33170952Y66220181D02*
X32694762Y66220181D01*
X32694762Y66220181D02*
X32694762Y67220181D01*
X33504286Y66743991D02*
X33837619Y66743991D01*
X33980476Y66220181D02*
X33504286Y66220181D01*
X33504286Y66220181D02*
X33504286Y67220181D01*
X33504286Y67220181D02*
X33980476Y67220181D01*
X34409048Y66220181D02*
X34409048Y67220181D01*
X34409048Y67220181D02*
X34647143Y67220181D01*
X34647143Y67220181D02*
X34790000Y67172562D01*
X34790000Y67172562D02*
X34885238Y67077324D01*
X34885238Y67077324D02*
X34932857Y66982086D01*
X34932857Y66982086D02*
X34980476Y66791610D01*
X34980476Y66791610D02*
X34980476Y66648753D01*
X34980476Y66648753D02*
X34932857Y66458277D01*
X34932857Y66458277D02*
X34885238Y66363039D01*
X34885238Y66363039D02*
X34790000Y66267800D01*
X34790000Y66267800D02*
X34647143Y66220181D01*
X34647143Y66220181D02*
X34409048Y66220181D01*
X35885238Y67220181D02*
X35409048Y67220181D01*
X35409048Y67220181D02*
X35361429Y66743991D01*
X35361429Y66743991D02*
X35409048Y66791610D01*
X35409048Y66791610D02*
X35504286Y66839229D01*
X35504286Y66839229D02*
X35742381Y66839229D01*
X35742381Y66839229D02*
X35837619Y66791610D01*
X35837619Y66791610D02*
X35885238Y66743991D01*
X35885238Y66743991D02*
X35932857Y66648753D01*
X35932857Y66648753D02*
X35932857Y66410658D01*
X35932857Y66410658D02*
X35885238Y66315420D01*
X35885238Y66315420D02*
X35837619Y66267800D01*
X35837619Y66267800D02*
X35742381Y66220181D01*
X35742381Y66220181D02*
X35504286Y66220181D01*
X35504286Y66220181D02*
X35409048Y66267800D01*
X35409048Y66267800D02*
X35361429Y66315420D01*
X48791905Y86940181D02*
X48791905Y87940181D01*
X48791905Y87940181D02*
X49030000Y87940181D01*
X49030000Y87940181D02*
X49172857Y87892562D01*
X49172857Y87892562D02*
X49268095Y87797324D01*
X49268095Y87797324D02*
X49315714Y87702086D01*
X49315714Y87702086D02*
X49363333Y87511610D01*
X49363333Y87511610D02*
X49363333Y87368753D01*
X49363333Y87368753D02*
X49315714Y87178277D01*
X49315714Y87178277D02*
X49268095Y87083039D01*
X49268095Y87083039D02*
X49172857Y86987800D01*
X49172857Y86987800D02*
X49030000Y86940181D01*
X49030000Y86940181D02*
X48791905Y86940181D01*
X49696667Y87940181D02*
X50315714Y87940181D01*
X50315714Y87940181D02*
X49982381Y87559229D01*
X49982381Y87559229D02*
X50125238Y87559229D01*
X50125238Y87559229D02*
X50220476Y87511610D01*
X50220476Y87511610D02*
X50268095Y87463991D01*
X50268095Y87463991D02*
X50315714Y87368753D01*
X50315714Y87368753D02*
X50315714Y87130658D01*
X50315714Y87130658D02*
X50268095Y87035420D01*
X50268095Y87035420D02*
X50220476Y86987800D01*
X50220476Y86987800D02*
X50125238Y86940181D01*
X50125238Y86940181D02*
X49839524Y86940181D01*
X49839524Y86940181D02*
X49744286Y86987800D01*
X49744286Y86987800D02*
X49696667Y87035420D01*
X45458095Y87175181D02*
X45458095Y88175181D01*
X46029523Y87175181D02*
X45600952Y87746610D01*
X46029523Y88175181D02*
X45458095Y87603753D01*
X37996905Y93525181D02*
X37996905Y94525181D01*
X37996905Y94525181D02*
X38235000Y94525181D01*
X38235000Y94525181D02*
X38377857Y94477562D01*
X38377857Y94477562D02*
X38473095Y94382324D01*
X38473095Y94382324D02*
X38520714Y94287086D01*
X38520714Y94287086D02*
X38568333Y94096610D01*
X38568333Y94096610D02*
X38568333Y93953753D01*
X38568333Y93953753D02*
X38520714Y93763277D01*
X38520714Y93763277D02*
X38473095Y93668039D01*
X38473095Y93668039D02*
X38377857Y93572800D01*
X38377857Y93572800D02*
X38235000Y93525181D01*
X38235000Y93525181D02*
X37996905Y93525181D01*
X39425476Y94525181D02*
X39235000Y94525181D01*
X39235000Y94525181D02*
X39139762Y94477562D01*
X39139762Y94477562D02*
X39092143Y94429943D01*
X39092143Y94429943D02*
X38996905Y94287086D01*
X38996905Y94287086D02*
X38949286Y94096610D01*
X38949286Y94096610D02*
X38949286Y93715658D01*
X38949286Y93715658D02*
X38996905Y93620420D01*
X38996905Y93620420D02*
X39044524Y93572800D01*
X39044524Y93572800D02*
X39139762Y93525181D01*
X39139762Y93525181D02*
X39330238Y93525181D01*
X39330238Y93525181D02*
X39425476Y93572800D01*
X39425476Y93572800D02*
X39473095Y93620420D01*
X39473095Y93620420D02*
X39520714Y93715658D01*
X39520714Y93715658D02*
X39520714Y93953753D01*
X39520714Y93953753D02*
X39473095Y94048991D01*
X39473095Y94048991D02*
X39425476Y94096610D01*
X39425476Y94096610D02*
X39330238Y94144229D01*
X39330238Y94144229D02*
X39139762Y94144229D01*
X39139762Y94144229D02*
X39044524Y94096610D01*
X39044524Y94096610D02*
X38996905Y94048991D01*
X38996905Y94048991D02*
X38949286Y93953753D01*
X34663095Y93420181D02*
X34663095Y94420181D01*
X35234523Y93420181D02*
X34805952Y93991610D01*
X35234523Y94420181D02*
X34663095Y93848753D01*
X43124523Y49710181D02*
X42791190Y50186372D01*
X42553095Y49710181D02*
X42553095Y50710181D01*
X42553095Y50710181D02*
X42934047Y50710181D01*
X42934047Y50710181D02*
X43029285Y50662562D01*
X43029285Y50662562D02*
X43076904Y50614943D01*
X43076904Y50614943D02*
X43124523Y50519705D01*
X43124523Y50519705D02*
X43124523Y50376848D01*
X43124523Y50376848D02*
X43076904Y50281610D01*
X43076904Y50281610D02*
X43029285Y50233991D01*
X43029285Y50233991D02*
X42934047Y50186372D01*
X42934047Y50186372D02*
X42553095Y50186372D01*
X43553095Y49710181D02*
X43553095Y50710181D01*
X43553095Y50710181D02*
X44124523Y49710181D01*
X44124523Y49710181D02*
X44124523Y50710181D01*
X45124523Y49710181D02*
X44553095Y49710181D01*
X44838809Y49710181D02*
X44838809Y50710181D01*
X44838809Y50710181D02*
X44743571Y50567324D01*
X44743571Y50567324D02*
X44648333Y50472086D01*
X44648333Y50472086D02*
X44553095Y50424467D01*
X18986667Y61407800D02*
X19129524Y61360181D01*
X19129524Y61360181D02*
X19367619Y61360181D01*
X19367619Y61360181D02*
X19462857Y61407800D01*
X19462857Y61407800D02*
X19510476Y61455420D01*
X19510476Y61455420D02*
X19558095Y61550658D01*
X19558095Y61550658D02*
X19558095Y61645896D01*
X19558095Y61645896D02*
X19510476Y61741134D01*
X19510476Y61741134D02*
X19462857Y61788753D01*
X19462857Y61788753D02*
X19367619Y61836372D01*
X19367619Y61836372D02*
X19177143Y61883991D01*
X19177143Y61883991D02*
X19081905Y61931610D01*
X19081905Y61931610D02*
X19034286Y61979229D01*
X19034286Y61979229D02*
X18986667Y62074467D01*
X18986667Y62074467D02*
X18986667Y62169705D01*
X18986667Y62169705D02*
X19034286Y62264943D01*
X19034286Y62264943D02*
X19081905Y62312562D01*
X19081905Y62312562D02*
X19177143Y62360181D01*
X19177143Y62360181D02*
X19415238Y62360181D01*
X19415238Y62360181D02*
X19558095Y62312562D01*
X19891429Y62360181D02*
X20129524Y61360181D01*
X20129524Y61360181D02*
X20320000Y62074467D01*
X20320000Y62074467D02*
X20510476Y61360181D01*
X20510476Y61360181D02*
X20748572Y62360181D01*
X21034286Y62360181D02*
X21700952Y62360181D01*
X21700952Y62360181D02*
X21272381Y61360181D01*
X31819285Y92883991D02*
X31962142Y92836372D01*
X31962142Y92836372D02*
X32009761Y92788753D01*
X32009761Y92788753D02*
X32057380Y92693515D01*
X32057380Y92693515D02*
X32057380Y92550658D01*
X32057380Y92550658D02*
X32009761Y92455420D01*
X32009761Y92455420D02*
X31962142Y92407800D01*
X31962142Y92407800D02*
X31866904Y92360181D01*
X31866904Y92360181D02*
X31485952Y92360181D01*
X31485952Y92360181D02*
X31485952Y93360181D01*
X31485952Y93360181D02*
X31819285Y93360181D01*
X31819285Y93360181D02*
X31914523Y93312562D01*
X31914523Y93312562D02*
X31962142Y93264943D01*
X31962142Y93264943D02*
X32009761Y93169705D01*
X32009761Y93169705D02*
X32009761Y93074467D01*
X32009761Y93074467D02*
X31962142Y92979229D01*
X31962142Y92979229D02*
X31914523Y92931610D01*
X31914523Y92931610D02*
X31819285Y92883991D01*
X31819285Y92883991D02*
X31485952Y92883991D01*
X32343095Y93360181D02*
X32914523Y93360181D01*
X32628809Y92360181D02*
X32628809Y93360181D01*
X33771666Y92360181D02*
X33200238Y92360181D01*
X33485952Y92360181D02*
X33485952Y93360181D01*
X33485952Y93360181D02*
X33390714Y93217324D01*
X33390714Y93217324D02*
X33295476Y93122086D01*
X33295476Y93122086D02*
X33200238Y93074467D01*
X11278571Y89590300D02*
X12421429Y89590300D01*
X11850000Y89018872D02*
X11850000Y90161729D01*
X65612200Y79470477D02*
X65659819Y79613334D01*
X65659819Y79613334D02*
X65659819Y79851429D01*
X65659819Y79851429D02*
X65612200Y79946667D01*
X65612200Y79946667D02*
X65564580Y79994286D01*
X65564580Y79994286D02*
X65469342Y80041905D01*
X65469342Y80041905D02*
X65374104Y80041905D01*
X65374104Y80041905D02*
X65278866Y79994286D01*
X65278866Y79994286D02*
X65231247Y79946667D01*
X65231247Y79946667D02*
X65183628Y79851429D01*
X65183628Y79851429D02*
X65136009Y79660953D01*
X65136009Y79660953D02*
X65088390Y79565715D01*
X65088390Y79565715D02*
X65040771Y79518096D01*
X65040771Y79518096D02*
X64945533Y79470477D01*
X64945533Y79470477D02*
X64850295Y79470477D01*
X64850295Y79470477D02*
X64755057Y79518096D01*
X64755057Y79518096D02*
X64707438Y79565715D01*
X64707438Y79565715D02*
X64659819Y79660953D01*
X64659819Y79660953D02*
X64659819Y79899048D01*
X64659819Y79899048D02*
X64707438Y80041905D01*
X64659819Y80375239D02*
X65659819Y80613334D01*
X65659819Y80613334D02*
X64945533Y80803810D01*
X64945533Y80803810D02*
X65659819Y80994286D01*
X65659819Y80994286D02*
X64659819Y81232381D01*
X65659819Y82137143D02*
X65659819Y81565715D01*
X65659819Y81851429D02*
X64659819Y81851429D01*
X64659819Y81851429D02*
X64802676Y81756191D01*
X64802676Y81756191D02*
X64897914Y81660953D01*
X64897914Y81660953D02*
X64945533Y81565715D01*
X64659819Y82470477D02*
X64659819Y83089524D01*
X64659819Y83089524D02*
X65040771Y82756191D01*
X65040771Y82756191D02*
X65040771Y82899048D01*
X65040771Y82899048D02*
X65088390Y82994286D01*
X65088390Y82994286D02*
X65136009Y83041905D01*
X65136009Y83041905D02*
X65231247Y83089524D01*
X65231247Y83089524D02*
X65469342Y83089524D01*
X65469342Y83089524D02*
X65564580Y83041905D01*
X65564580Y83041905D02*
X65612200Y82994286D01*
X65612200Y82994286D02*
X65659819Y82899048D01*
X65659819Y82899048D02*
X65659819Y82613334D01*
X65659819Y82613334D02*
X65612200Y82518096D01*
X65612200Y82518096D02*
X65564580Y82470477D01*
X44269819Y9421906D02*
X43269819Y9421906D01*
X43269819Y9421906D02*
X43269819Y9660001D01*
X43269819Y9660001D02*
X43317438Y9802858D01*
X43317438Y9802858D02*
X43412676Y9898096D01*
X43412676Y9898096D02*
X43507914Y9945715D01*
X43507914Y9945715D02*
X43698390Y9993334D01*
X43698390Y9993334D02*
X43841247Y9993334D01*
X43841247Y9993334D02*
X44031723Y9945715D01*
X44031723Y9945715D02*
X44126961Y9898096D01*
X44126961Y9898096D02*
X44222200Y9802858D01*
X44222200Y9802858D02*
X44269819Y9660001D01*
X44269819Y9660001D02*
X44269819Y9421906D01*
X43603152Y10850477D02*
X44269819Y10850477D01*
X43222200Y10612382D02*
X43936485Y10374287D01*
X43936485Y10374287D02*
X43936485Y10993334D01*
X46809819Y4183096D02*
X45809819Y4183096D01*
X46809819Y4754524D02*
X46238390Y4325953D01*
X45809819Y4754524D02*
X46381247Y4183096D01*
X64714523Y63680181D02*
X64381190Y64156372D01*
X64143095Y63680181D02*
X64143095Y64680181D01*
X64143095Y64680181D02*
X64524047Y64680181D01*
X64524047Y64680181D02*
X64619285Y64632562D01*
X64619285Y64632562D02*
X64666904Y64584943D01*
X64666904Y64584943D02*
X64714523Y64489705D01*
X64714523Y64489705D02*
X64714523Y64346848D01*
X64714523Y64346848D02*
X64666904Y64251610D01*
X64666904Y64251610D02*
X64619285Y64203991D01*
X64619285Y64203991D02*
X64524047Y64156372D01*
X64524047Y64156372D02*
X64143095Y64156372D01*
X65143095Y63680181D02*
X65143095Y64680181D01*
X65143095Y64680181D02*
X65714523Y63680181D01*
X65714523Y63680181D02*
X65714523Y64680181D01*
X66095476Y64680181D02*
X66714523Y64680181D01*
X66714523Y64680181D02*
X66381190Y64299229D01*
X66381190Y64299229D02*
X66524047Y64299229D01*
X66524047Y64299229D02*
X66619285Y64251610D01*
X66619285Y64251610D02*
X66666904Y64203991D01*
X66666904Y64203991D02*
X66714523Y64108753D01*
X66714523Y64108753D02*
X66714523Y63870658D01*
X66714523Y63870658D02*
X66666904Y63775420D01*
X66666904Y63775420D02*
X66619285Y63727800D01*
X66619285Y63727800D02*
X66524047Y63680181D01*
X66524047Y63680181D02*
X66238333Y63680181D01*
X66238333Y63680181D02*
X66143095Y63727800D01*
X66143095Y63727800D02*
X66095476Y63775420D01*
X54125952Y66220181D02*
X53649762Y66220181D01*
X53649762Y66220181D02*
X53649762Y67220181D01*
X54459286Y66743991D02*
X54792619Y66743991D01*
X54935476Y66220181D02*
X54459286Y66220181D01*
X54459286Y66220181D02*
X54459286Y67220181D01*
X54459286Y67220181D02*
X54935476Y67220181D01*
X55364048Y66220181D02*
X55364048Y67220181D01*
X55364048Y67220181D02*
X55602143Y67220181D01*
X55602143Y67220181D02*
X55745000Y67172562D01*
X55745000Y67172562D02*
X55840238Y67077324D01*
X55840238Y67077324D02*
X55887857Y66982086D01*
X55887857Y66982086D02*
X55935476Y66791610D01*
X55935476Y66791610D02*
X55935476Y66648753D01*
X55935476Y66648753D02*
X55887857Y66458277D01*
X55887857Y66458277D02*
X55840238Y66363039D01*
X55840238Y66363039D02*
X55745000Y66267800D01*
X55745000Y66267800D02*
X55602143Y66220181D01*
X55602143Y66220181D02*
X55364048Y66220181D01*
X56316429Y67124943D02*
X56364048Y67172562D01*
X56364048Y67172562D02*
X56459286Y67220181D01*
X56459286Y67220181D02*
X56697381Y67220181D01*
X56697381Y67220181D02*
X56792619Y67172562D01*
X56792619Y67172562D02*
X56840238Y67124943D01*
X56840238Y67124943D02*
X56887857Y67029705D01*
X56887857Y67029705D02*
X56887857Y66934467D01*
X56887857Y66934467D02*
X56840238Y66791610D01*
X56840238Y66791610D02*
X56268810Y66220181D01*
X56268810Y66220181D02*
X56887857Y66220181D01*
X48791905Y93525181D02*
X48791905Y94525181D01*
X48791905Y94525181D02*
X49030000Y94525181D01*
X49030000Y94525181D02*
X49172857Y94477562D01*
X49172857Y94477562D02*
X49268095Y94382324D01*
X49268095Y94382324D02*
X49315714Y94287086D01*
X49315714Y94287086D02*
X49363333Y94096610D01*
X49363333Y94096610D02*
X49363333Y93953753D01*
X49363333Y93953753D02*
X49315714Y93763277D01*
X49315714Y93763277D02*
X49268095Y93668039D01*
X49268095Y93668039D02*
X49172857Y93572800D01*
X49172857Y93572800D02*
X49030000Y93525181D01*
X49030000Y93525181D02*
X48791905Y93525181D01*
X49744286Y94429943D02*
X49791905Y94477562D01*
X49791905Y94477562D02*
X49887143Y94525181D01*
X49887143Y94525181D02*
X50125238Y94525181D01*
X50125238Y94525181D02*
X50220476Y94477562D01*
X50220476Y94477562D02*
X50268095Y94429943D01*
X50268095Y94429943D02*
X50315714Y94334705D01*
X50315714Y94334705D02*
X50315714Y94239467D01*
X50315714Y94239467D02*
X50268095Y94096610D01*
X50268095Y94096610D02*
X49696667Y93525181D01*
X49696667Y93525181D02*
X50315714Y93525181D01*
X45458095Y93525181D02*
X45458095Y94525181D01*
X46029523Y93525181D02*
X45600952Y94096610D01*
X46029523Y94525181D02*
X45458095Y93953753D01*
X47140952Y66220181D02*
X46664762Y66220181D01*
X46664762Y66220181D02*
X46664762Y67220181D01*
X47474286Y66743991D02*
X47807619Y66743991D01*
X47950476Y66220181D02*
X47474286Y66220181D01*
X47474286Y66220181D02*
X47474286Y67220181D01*
X47474286Y67220181D02*
X47950476Y67220181D01*
X48379048Y66220181D02*
X48379048Y67220181D01*
X48379048Y67220181D02*
X48617143Y67220181D01*
X48617143Y67220181D02*
X48760000Y67172562D01*
X48760000Y67172562D02*
X48855238Y67077324D01*
X48855238Y67077324D02*
X48902857Y66982086D01*
X48902857Y66982086D02*
X48950476Y66791610D01*
X48950476Y66791610D02*
X48950476Y66648753D01*
X48950476Y66648753D02*
X48902857Y66458277D01*
X48902857Y66458277D02*
X48855238Y66363039D01*
X48855238Y66363039D02*
X48760000Y66267800D01*
X48760000Y66267800D02*
X48617143Y66220181D01*
X48617143Y66220181D02*
X48379048Y66220181D01*
X49283810Y67220181D02*
X49902857Y67220181D01*
X49902857Y67220181D02*
X49569524Y66839229D01*
X49569524Y66839229D02*
X49712381Y66839229D01*
X49712381Y66839229D02*
X49807619Y66791610D01*
X49807619Y66791610D02*
X49855238Y66743991D01*
X49855238Y66743991D02*
X49902857Y66648753D01*
X49902857Y66648753D02*
X49902857Y66410658D01*
X49902857Y66410658D02*
X49855238Y66315420D01*
X49855238Y66315420D02*
X49807619Y66267800D01*
X49807619Y66267800D02*
X49712381Y66220181D01*
X49712381Y66220181D02*
X49426667Y66220181D01*
X49426667Y66220181D02*
X49331429Y66267800D01*
X49331429Y66267800D02*
X49283810Y66315420D01*
X5379819Y34798096D02*
X6189342Y34798096D01*
X6189342Y34798096D02*
X6284580Y34845715D01*
X6284580Y34845715D02*
X6332200Y34893334D01*
X6332200Y34893334D02*
X6379819Y34988572D01*
X6379819Y34988572D02*
X6379819Y35179048D01*
X6379819Y35179048D02*
X6332200Y35274286D01*
X6332200Y35274286D02*
X6284580Y35321905D01*
X6284580Y35321905D02*
X6189342Y35369524D01*
X6189342Y35369524D02*
X5379819Y35369524D01*
X6379819Y36369524D02*
X6379819Y35798096D01*
X6379819Y36083810D02*
X5379819Y36083810D01*
X5379819Y36083810D02*
X5522676Y35988572D01*
X5522676Y35988572D02*
X5617914Y35893334D01*
X5617914Y35893334D02*
X5665533Y35798096D01*
D15*
X7520000Y64640000D02*
X7520000Y58100000D01*
X7520000Y58100000D02*
X7850000Y58100000D01*
X7850000Y64640000D02*
X7520000Y64640000D01*
X9930000Y64640000D02*
X10260000Y64640000D01*
X10260000Y64640000D02*
X10260000Y58100000D01*
X10260000Y58100000D02*
X9930000Y58100000D01*
X62755000Y25460000D02*
X62755000Y7560000D01*
X62755000Y7560000D02*
X68055000Y7560000D01*
X64405000Y25460000D02*
X62755000Y25460000D01*
X68055000Y25460000D02*
X66405000Y25460000D01*
X68055000Y7560000D02*
X68055000Y25460000D01*
X66405000Y25460000D02*
G75*
G02*
X64405000Y25460000I-1000000J0D01*
G01*
X13875000Y75665000D02*
X13875000Y75335000D01*
X13875000Y72925000D02*
X13875000Y73255000D01*
X20415000Y75665000D02*
X13875000Y75665000D01*
X20415000Y75335000D02*
X20415000Y75665000D01*
X20415000Y73255000D02*
X20415000Y72925000D01*
X20415000Y72925000D02*
X13875000Y72925000D01*
X6925000Y47685000D02*
X8255000Y47685000D01*
X6925000Y46355000D02*
X6925000Y47685000D01*
X9525000Y47685000D02*
X57845000Y47685000D01*
X9525000Y45025000D02*
X9525000Y47685000D01*
X9525000Y45025000D02*
X57845000Y45025000D01*
X57845000Y45025000D02*
X57845000Y47685000D01*
X6925000Y26095000D02*
X8255000Y26095000D01*
X6925000Y24765000D02*
X6925000Y26095000D01*
X9525000Y26095000D02*
X57845000Y26095000D01*
X9525000Y23435000D02*
X9525000Y26095000D01*
X9525000Y23435000D02*
X57845000Y23435000D01*
X57845000Y23435000D02*
X57845000Y26095000D01*
X24765000Y60577000D02*
X29845000Y60577000D01*
X24765000Y52447000D02*
X24765000Y60577000D01*
X29845000Y60577000D02*
X29845000Y52447000D01*
X29845000Y52447000D02*
X24765000Y52447000D01*
X57055000Y90270000D02*
X63595000Y90270000D01*
X57055000Y89940000D02*
X57055000Y90270000D01*
X57055000Y87860000D02*
X57055000Y87530000D01*
X57055000Y87530000D02*
X63595000Y87530000D01*
X63595000Y90270000D02*
X63595000Y89940000D01*
X63595000Y87530000D02*
X63595000Y87860000D01*
X62755000Y49590000D02*
X62755000Y31690000D01*
X62755000Y31690000D02*
X68055000Y31690000D01*
X64405000Y49590000D02*
X62755000Y49590000D01*
X68055000Y49590000D02*
X66405000Y49590000D01*
X68055000Y31690000D02*
X68055000Y49590000D01*
X66405000Y49590000D02*
G75*
G02*
X64405000Y49590000I-1000000J0D01*
G01*
X1805000Y45815000D02*
X1805000Y39275000D01*
X1805000Y39275000D02*
X2135000Y39275000D01*
X2135000Y45815000D02*
X1805000Y45815000D01*
X4215000Y45815000D02*
X4545000Y45815000D01*
X4545000Y45815000D02*
X4545000Y39275000D01*
X4545000Y39275000D02*
X4215000Y39275000D01*
X2475000Y83940000D02*
X2475000Y82290000D01*
X2475000Y80290000D02*
X2475000Y78640000D01*
X2475000Y78640000D02*
X20375000Y78640000D01*
X20375000Y83940000D02*
X2475000Y83940000D01*
X20375000Y78640000D02*
X20375000Y83940000D01*
X2475000Y82290000D02*
G75*
G02*
X2475000Y80290000I0J-1000000D01*
G01*
X60665000Y71086000D02*
X60665000Y70930000D01*
X60665000Y68770000D02*
X60665000Y68614000D01*
X60665000Y71085516D02*
G75*
G02*
X63897335Y70928608I1560000J-1235516D01*
G01*
X61184039Y70930000D02*
G75*
G02*
X63266130Y70929837I1040961J-1080000D01*
G01*
X63266130Y68770163D02*
G75*
G02*
X61184039Y68770000I-1041130J1079837D01*
G01*
X63897335Y68771392D02*
G75*
G02*
X60665000Y68614484I-1672335J1078608D01*
G01*
X4980000Y55175000D02*
X5295000Y55175000D01*
X4980000Y50235000D02*
X4980000Y55175000D01*
X4980000Y50235000D02*
X5295000Y50235000D01*
X7405000Y55175000D02*
X7720000Y55175000D01*
X7405000Y50235000D02*
X7720000Y50235000D01*
X7720000Y50235000D02*
X7720000Y55175000D01*
X39710000Y71086000D02*
X39710000Y70930000D01*
X39710000Y68770000D02*
X39710000Y68614000D01*
X39710000Y71085516D02*
G75*
G02*
X42942335Y70928608I1560000J-1235516D01*
G01*
X40229039Y70930000D02*
G75*
G02*
X42311130Y70929837I1040961J-1080000D01*
G01*
X42311130Y68770163D02*
G75*
G02*
X40229039Y68770000I-1041130J1079837D01*
G01*
X42942335Y68771392D02*
G75*
G02*
X39710000Y68614484I-1672335J1078608D01*
G01*
X535000Y14700000D02*
X865000Y14700000D01*
X535000Y8160000D02*
X535000Y14700000D01*
X865000Y8160000D02*
X535000Y8160000D01*
X2945000Y8160000D02*
X3275000Y8160000D01*
X3275000Y14700000D02*
X2945000Y14700000D01*
X3275000Y8160000D02*
X3275000Y14700000D01*
X10795000Y60577000D02*
X15875000Y60577000D01*
X10795000Y52447000D02*
X10795000Y60577000D01*
X15875000Y60577000D02*
X15875000Y52447000D01*
X15875000Y52447000D02*
X10795000Y52447000D01*
X10065000Y51535000D02*
X10065000Y51205000D01*
X10065000Y48795000D02*
X10065000Y49125000D01*
X16605000Y51535000D02*
X10065000Y51535000D01*
X16605000Y51205000D02*
X16605000Y51535000D01*
X16605000Y49125000D02*
X16605000Y48795000D01*
X16605000Y48795000D02*
X10065000Y48795000D01*
X18755000Y71086000D02*
X18755000Y70930000D01*
X18755000Y68770000D02*
X18755000Y68614000D01*
X18755000Y71085516D02*
G75*
G02*
X21987335Y70928608I1560000J-1235516D01*
G01*
X19274039Y70930000D02*
G75*
G02*
X21356130Y70929837I1040961J-1080000D01*
G01*
X21356130Y68770163D02*
G75*
G02*
X19274039Y68770000I-1041130J1079837D01*
G01*
X21987335Y68771392D02*
G75*
G02*
X18755000Y68614484I-1672335J1078608D01*
G01*
X66575000Y61055000D02*
X66575000Y54515000D01*
X66575000Y54515000D02*
X66905000Y54515000D01*
X66905000Y61055000D02*
X66575000Y61055000D01*
X68985000Y61055000D02*
X69315000Y61055000D01*
X69315000Y61055000D02*
X69315000Y54515000D01*
X69315000Y54515000D02*
X68985000Y54515000D01*
X23435000Y83930000D02*
X23435000Y82280000D01*
X23435000Y80280000D02*
X23435000Y78630000D01*
X23435000Y78630000D02*
X48955000Y78630000D01*
X48955000Y83930000D02*
X23435000Y83930000D01*
X48955000Y78630000D02*
X48955000Y83930000D01*
X23435000Y82280000D02*
G75*
G02*
X23435000Y80280000I0J-1000000D01*
G01*
X1610000Y20286000D02*
X1610000Y20130000D01*
X1610000Y17970000D02*
X1610000Y17814000D01*
X1610000Y20285516D02*
G75*
G02*
X4842335Y20128608I1560000J-1235516D01*
G01*
X2129039Y20130000D02*
G75*
G02*
X4211130Y20129837I1040961J-1080000D01*
G01*
X4211130Y17970163D02*
G75*
G02*
X2129039Y17970000I-1041130J1079837D01*
G01*
X4842335Y17971392D02*
G75*
G02*
X1610000Y17814484I-1672335J1078608D01*
G01*
X38735000Y60577000D02*
X43815000Y60577000D01*
X38735000Y52447000D02*
X38735000Y60577000D01*
X43815000Y60577000D02*
X43815000Y52447000D01*
X43815000Y52447000D02*
X38735000Y52447000D01*
X48217500Y14020000D02*
X48217500Y15070000D01*
X48417500Y14870000D02*
X51017500Y14870000D01*
X48417500Y170000D02*
X48417500Y14870000D01*
X49267500Y15070000D02*
X48217500Y15070000D01*
X54917500Y14870000D02*
X57617500Y14870000D01*
X57617500Y14870000D02*
X57617500Y12970000D01*
X57617500Y8970000D02*
X57617500Y170000D01*
X57617500Y170000D02*
X48417500Y170000D01*
X46185000Y51565000D02*
X46185000Y48765000D01*
X46185000Y48765000D02*
X59225000Y48765000D01*
X56515000Y48765000D02*
X56515000Y51565000D01*
X59225000Y51565000D02*
X46185000Y51565000D01*
X59225000Y48765000D02*
X59225000Y51565000D01*
X1845000Y31175000D02*
X3175000Y31175000D01*
X1845000Y29845000D02*
X1845000Y31175000D01*
X1845000Y28575000D02*
X1845000Y23435000D01*
X1845000Y28575000D02*
X4505000Y28575000D01*
X1845000Y23435000D02*
X4505000Y23435000D01*
X4505000Y28575000D02*
X4505000Y23435000D01*
X59055000Y84707000D02*
X64135000Y84707000D01*
X59055000Y76577000D02*
X59055000Y84707000D01*
X64135000Y84707000D02*
X64135000Y76577000D01*
X64135000Y76577000D02*
X59055000Y76577000D01*
X45720000Y60537000D02*
X50800000Y60537000D01*
X45720000Y52407000D02*
X45720000Y60537000D01*
X50800000Y60537000D02*
X50800000Y52407000D01*
X50800000Y52407000D02*
X45720000Y52407000D01*
X6865000Y17855000D02*
X6865000Y7575000D01*
X6865000Y7575000D02*
X42665000Y7575000D01*
X6925000Y15365000D02*
X6925000Y13715000D01*
X6925000Y11715000D02*
X6925000Y10065000D01*
X6925000Y10065000D02*
X42605000Y10065000D01*
X42605000Y15365000D02*
X6925000Y15365000D01*
X42605000Y10065000D02*
X42605000Y15365000D01*
X42665000Y17855000D02*
X6865000Y17855000D01*
X42665000Y7575000D02*
X42665000Y17855000D01*
X6925000Y13715000D02*
G75*
G02*
X6925000Y11715000I0J-1000000D01*
G01*
X25740000Y71086000D02*
X25740000Y70930000D01*
X25740000Y68770000D02*
X25740000Y68614000D01*
X25740000Y71085516D02*
G75*
G02*
X28972335Y70928608I1560000J-1235516D01*
G01*
X26259039Y70930000D02*
G75*
G02*
X28341130Y70929837I1040961J-1080000D01*
G01*
X28341130Y68770163D02*
G75*
G02*
X26259039Y68770000I-1041130J1079837D01*
G01*
X28972335Y68771392D02*
G75*
G02*
X25740000Y68614484I-1672335J1078608D01*
G01*
X52705000Y60577000D02*
X57785000Y60577000D01*
X52705000Y52447000D02*
X52705000Y60577000D01*
X57785000Y60577000D02*
X57785000Y52447000D01*
X57785000Y52447000D02*
X52705000Y52447000D01*
X59690000Y60577000D02*
X64770000Y60577000D01*
X59690000Y52447000D02*
X59690000Y60577000D01*
X64770000Y60577000D02*
X64770000Y52447000D01*
X64770000Y52447000D02*
X59690000Y52447000D01*
X1705000Y56060000D02*
X2035000Y56060000D01*
X1705000Y51640000D02*
X4645000Y51640000D01*
X1705000Y51520000D02*
X4645000Y51520000D01*
X1705000Y51400000D02*
X4645000Y51400000D01*
X1705000Y50620000D02*
X1705000Y56060000D01*
X2035000Y50620000D02*
X1705000Y50620000D01*
X4315000Y50620000D02*
X4645000Y50620000D01*
X4645000Y56060000D02*
X4315000Y56060000D01*
X4645000Y50620000D02*
X4645000Y56060000D01*
X7770000Y73240000D02*
X7770000Y69000000D01*
X7770000Y69000000D02*
X10010000Y69000000D01*
X8890000Y73890000D02*
X8890000Y73240000D01*
X8890000Y68350000D02*
X8890000Y69000000D01*
X10010000Y73240000D02*
X7770000Y73240000D01*
X10010000Y72640000D02*
X7770000Y72640000D01*
X10010000Y72520000D02*
X7770000Y72520000D01*
X10010000Y72400000D02*
X7770000Y72400000D01*
X10010000Y69000000D02*
X10010000Y73240000D01*
X6865000Y21650000D02*
X6865000Y3750000D01*
X6865000Y3750000D02*
X42665000Y3750000D01*
X6925000Y19160000D02*
X6925000Y13700000D01*
X6925000Y11700000D02*
X6925000Y6240000D01*
X6925000Y6240000D02*
X42605000Y6240000D01*
X42605000Y19160000D02*
X6925000Y19160000D01*
X42605000Y6240000D02*
X42605000Y19160000D01*
X42665000Y21650000D02*
X6865000Y21650000D01*
X42665000Y3750000D02*
X42665000Y21650000D01*
X6925000Y13700000D02*
G75*
G02*
X6925000Y11700000I0J-1000000D01*
G01*
X11775000Y71086000D02*
X11775000Y70930000D01*
X11775000Y68770000D02*
X11775000Y68614000D01*
X11775000Y71085516D02*
G75*
G02*
X15007335Y70928608I1560000J-1235516D01*
G01*
X12294039Y70930000D02*
G75*
G02*
X14376130Y70929837I1040961J-1080000D01*
G01*
X14376130Y68770163D02*
G75*
G02*
X12294039Y68770000I-1041130J1079837D01*
G01*
X15007335Y68771392D02*
G75*
G02*
X11775000Y68614484I-1672335J1078608D01*
G01*
X57055000Y93445000D02*
X63595000Y93445000D01*
X57055000Y93115000D02*
X57055000Y93445000D01*
X57055000Y91035000D02*
X57055000Y90705000D01*
X57055000Y90705000D02*
X63595000Y90705000D01*
X63595000Y93445000D02*
X63595000Y93115000D01*
X63595000Y90705000D02*
X63595000Y91035000D01*
X1270000Y69215000D02*
X1270000Y61585000D01*
X1270000Y69215000D02*
X6350000Y69215000D01*
X1270000Y61595000D02*
X6350000Y61585000D01*
X6350000Y69215000D02*
X6350000Y61585000D01*
X57050000Y21520000D02*
X57050000Y16580000D01*
X57365000Y21520000D02*
X57050000Y21520000D01*
X57365000Y16580000D02*
X57050000Y16580000D01*
X59790000Y21520000D02*
X59475000Y21520000D01*
X59790000Y21520000D02*
X59790000Y16580000D01*
X59790000Y16580000D02*
X59475000Y16580000D01*
X31750000Y60577000D02*
X36830000Y60577000D01*
X31750000Y52447000D02*
X31750000Y60577000D01*
X36830000Y60577000D02*
X36830000Y52447000D01*
X36830000Y52447000D02*
X31750000Y52447000D01*
X48165000Y22325000D02*
X54705000Y22325000D01*
X48165000Y21995000D02*
X48165000Y22325000D01*
X48165000Y19915000D02*
X48165000Y19585000D01*
X48165000Y19585000D02*
X54705000Y19585000D01*
X54705000Y22325000D02*
X54705000Y21995000D01*
X54705000Y19585000D02*
X54705000Y19915000D01*
X35465000Y90670000D02*
X42005000Y90670000D01*
X35465000Y90340000D02*
X35465000Y90670000D01*
X35465000Y88260000D02*
X35465000Y87930000D01*
X35465000Y87930000D02*
X42005000Y87930000D01*
X42005000Y90670000D02*
X42005000Y90340000D01*
X42005000Y87930000D02*
X42005000Y88260000D01*
X11895000Y65535000D02*
X11895000Y62735000D01*
X11895000Y62735000D02*
X35095000Y62735000D01*
X32385000Y62735000D02*
X32385000Y65535000D01*
X35095000Y65535000D02*
X11895000Y65535000D01*
X35095000Y62735000D02*
X35095000Y65535000D01*
X52070000Y84707000D02*
X57150000Y84707000D01*
X52070000Y76577000D02*
X52070000Y84707000D01*
X57150000Y84707000D02*
X57150000Y76577000D01*
X57150000Y76577000D02*
X52070000Y76577000D01*
X66575000Y71850000D02*
X66905000Y71850000D01*
X66575000Y65310000D02*
X66575000Y71850000D01*
X66905000Y65310000D02*
X66575000Y65310000D01*
X68985000Y65310000D02*
X69315000Y65310000D01*
X69315000Y71850000D02*
X68985000Y71850000D01*
X69315000Y65310000D02*
X69315000Y71850000D01*
X62635000Y28575000D02*
X63285000Y28575000D01*
X63285000Y29695000D02*
X63285000Y27455000D01*
X63285000Y27455000D02*
X67525000Y27455000D01*
X63885000Y29695000D02*
X63885000Y27455000D01*
X64005000Y29695000D02*
X64005000Y27455000D01*
X64125000Y29695000D02*
X64125000Y27455000D01*
X67525000Y29695000D02*
X63285000Y29695000D01*
X67525000Y27455000D02*
X67525000Y29695000D01*
X68175000Y28575000D02*
X67525000Y28575000D01*
X32725000Y71086000D02*
X32725000Y70930000D01*
X32725000Y68770000D02*
X32725000Y68614000D01*
X32725000Y71085516D02*
G75*
G02*
X35957335Y70928608I1560000J-1235516D01*
G01*
X33244039Y70930000D02*
G75*
G02*
X35326130Y70929837I1040961J-1080000D01*
G01*
X35326130Y68770163D02*
G75*
G02*
X33244039Y68770000I-1041130J1079837D01*
G01*
X35957335Y68771392D02*
G75*
G02*
X32725000Y68614484I-1672335J1078608D01*
G01*
X46760000Y89300000D02*
X47410000Y89300000D01*
X47410000Y90420000D02*
X47410000Y88180000D01*
X47410000Y88180000D02*
X51650000Y88180000D01*
X48010000Y90420000D02*
X48010000Y88180000D01*
X48130000Y90420000D02*
X48130000Y88180000D01*
X48250000Y90420000D02*
X48250000Y88180000D01*
X51650000Y90420000D02*
X47410000Y90420000D01*
X51650000Y88180000D02*
X51650000Y90420000D01*
X52300000Y89300000D02*
X51650000Y89300000D01*
X35965000Y92075000D02*
X36615000Y92075000D01*
X36615000Y93195000D02*
X36615000Y90955000D01*
X36615000Y90955000D02*
X40855000Y90955000D01*
X37215000Y93195000D02*
X37215000Y90955000D01*
X37335000Y93195000D02*
X37335000Y90955000D01*
X37455000Y93195000D02*
X37455000Y90955000D01*
X40855000Y93195000D02*
X36615000Y93195000D01*
X40855000Y90955000D02*
X40855000Y93195000D01*
X41505000Y92075000D02*
X40855000Y92075000D01*
X18880000Y51565000D02*
X18880000Y48765000D01*
X18880000Y48765000D02*
X42080000Y48765000D01*
X21590000Y51565000D02*
X21590000Y48765000D01*
X42080000Y51565000D02*
X18880000Y51565000D01*
X42080000Y48765000D02*
X42080000Y51565000D01*
X17780000Y60537000D02*
X22860000Y60537000D01*
X17780000Y52407000D02*
X17780000Y60537000D01*
X22860000Y60537000D02*
X22860000Y52407000D01*
X22860000Y52407000D02*
X17780000Y52407000D01*
X7050000Y94105000D02*
X7050000Y87505000D01*
X7050000Y94105000D02*
X31050000Y94105000D01*
X7050000Y87505000D02*
X31050000Y87505000D01*
X31050000Y94105000D02*
X31050000Y87505000D01*
X66040000Y84707000D02*
X71120000Y84707000D01*
X66040000Y76577000D02*
X66040000Y84707000D01*
X71120000Y84707000D02*
X71120000Y76577000D01*
X71120000Y76577000D02*
X66040000Y76577000D01*
X44885000Y12880000D02*
X45215000Y12880000D01*
X44885000Y8460000D02*
X47825000Y8460000D01*
X44885000Y8340000D02*
X47825000Y8340000D01*
X44885000Y8220000D02*
X47825000Y8220000D01*
X44885000Y7440000D02*
X44885000Y12880000D01*
X45215000Y7440000D02*
X44885000Y7440000D01*
X47495000Y7440000D02*
X47825000Y7440000D01*
X47825000Y12880000D02*
X47495000Y12880000D01*
X47825000Y7440000D02*
X47825000Y12880000D01*
X40470000Y65535000D02*
X40470000Y62735000D01*
X40470000Y62735000D02*
X63670000Y62735000D01*
X60960000Y62735000D02*
X60960000Y65535000D01*
X63670000Y65535000D02*
X40470000Y65535000D01*
X63670000Y62735000D02*
X63670000Y65535000D01*
X53680000Y71086000D02*
X53680000Y70930000D01*
X53680000Y68770000D02*
X53680000Y68614000D01*
X53680000Y71085516D02*
G75*
G02*
X56912335Y70928608I1560000J-1235516D01*
G01*
X54199039Y70930000D02*
G75*
G02*
X56281130Y70929837I1040961J-1080000D01*
G01*
X56281130Y68770163D02*
G75*
G02*
X54199039Y68770000I-1041130J1079837D01*
G01*
X56912335Y68771392D02*
G75*
G02*
X53680000Y68614484I-1672335J1078608D01*
G01*
X46760000Y92075000D02*
X47410000Y92075000D01*
X47410000Y93195000D02*
X47410000Y90955000D01*
X47410000Y90955000D02*
X51650000Y90955000D01*
X48010000Y93195000D02*
X48010000Y90955000D01*
X48130000Y93195000D02*
X48130000Y90955000D01*
X48250000Y93195000D02*
X48250000Y90955000D01*
X51650000Y93195000D02*
X47410000Y93195000D01*
X51650000Y90955000D02*
X51650000Y93195000D01*
X52300000Y92075000D02*
X51650000Y92075000D01*
X46695000Y71086000D02*
X46695000Y70930000D01*
X46695000Y68770000D02*
X46695000Y68614000D01*
X46695000Y71085516D02*
G75*
G02*
X49927335Y70928608I1560000J-1235516D01*
G01*
X47214039Y70930000D02*
G75*
G02*
X49296130Y70929837I1040961J-1080000D01*
G01*
X49296130Y68770163D02*
G75*
G02*
X47214039Y68770000I-1041130J1079837D01*
G01*
X49927335Y68771392D02*
G75*
G02*
X46695000Y68614484I-1672335J1078608D01*
G01*
X6865000Y44510000D02*
X6865000Y26610000D01*
X6865000Y26610000D02*
X57905000Y26610000D01*
X6925000Y42020000D02*
X6925000Y36560000D01*
X6925000Y34560000D02*
X6925000Y29100000D01*
X6925000Y29100000D02*
X57845000Y29100000D01*
X57845000Y42020000D02*
X6925000Y42020000D01*
X57845000Y29100000D02*
X57845000Y42020000D01*
X57905000Y44510000D02*
X6865000Y44510000D01*
X57905000Y26610000D02*
X57905000Y44510000D01*
X6925000Y36560000D02*
G75*
G02*
X6925000Y34560000I0J-1000000D01*
G01*
M02*
